<svg xmlns="http://www.w3.org/2000/svg" viewBox="0 0 480 600" width="480" height="600"><defs><linearGradient id="bg" x1="0" y1="0" x2="1" y2="1"><stop offset="0" stop-color="#12241a"></stop><stop offset="1" stop-color="#0b140e"></stop></linearGradient></defs><rect width="480" height="600" fill="url(#bg)"></rect><circle cx="24" cy="24" r="1.4" fill="#2a3a2c"></circle><circle cx="72" cy="24" r="1.4" fill="#2a3a2c"></circle><circle cx="120" cy="24" r="1.4" fill="#2a3a2c"></circle><circle cx="168" cy="24" r="1.4" fill="#2a3a2c"></circle><circle cx="216" cy="24" r="1.4" fill="#2a3a2c"></circle><circle cx="264" cy="24" r="1.4" fill="#2a3a2c"></circle><circle cx="312" cy="24" r="1.4" fill="#2a3a2c"></circle><circle cx="360" cy="24" r="1.4" fill="#2a3a2c"></circle><circle cx="408" cy="24" r="1.4" fill="#2a3a2c"></circle><circle cx="456" cy="24" r="1.4" fill="#2a3a2c"></circle><circle cx="24" cy="72" r="1.4" fill="#2a3a2c"></circle><circle cx="72" cy="72" r="1.4" fill="#2a3a2c"></circle><circle cx="120" cy="72" r="1.4" fill="#2a3a2c"></circle><circle cx="168" cy="72" r="1.4" fill="#2a3a2c"></circle><circle cx="216" cy="72" r="1.4" fill="#2a3a2c"></circle><circle cx="264" cy="72" r="1.4" fill="#2a3a2c"></circle><circle cx="312" cy="72" r="1.4" fill="#2a3a2c"></circle><circle cx="360" cy="72" r="1.4" fill="#2a3a2c"></circle><circle cx="408" cy="72" r="1.4" fill="#2a3a2c"></circle><circle cx="456" cy="72" r="1.4" fill="#2a3a2c"></circle><circle cx="24" cy="120" r="1.4" fill="#2a3a2c"></circle><circle cx="72" cy="120" r="1.4" fill="#2a3a2c"></circle><circle cx="120" cy="120" r="1.4" fill="#2a3a2c"></circle><circle cx="168" cy="120" r="1.4" fill="#2a3a2c"></circle><circle cx="216" cy="120" r="1.4" fill="#2a3a2c"></circle><circle cx="264" cy="120" r="1.4" fill="#2a3a2c"></circle><circle cx="312" cy="120" r="1.4" fill="#2a3a2c"></circle><circle cx="360" cy="120" r="1.4" fill="#2a3a2c"></circle><circle cx="408" cy="120" r="1.4" fill="#2a3a2c"></circle><circle cx="456" cy="120" r="1.4" fill="#2a3a2c"></circle><circle cx="24" cy="168" r="1.4" fill="#2a3a2c"></circle><circle cx="72" cy="168" r="1.4" fill="#2a3a2c"></circle><circle cx="120" cy="168" r="1.4" fill="#2a3a2c"></circle><circle cx="168" cy="168" r="1.4" fill="#2a3a2c"></circle><circle cx="216" cy="168" r="1.4" fill="#2a3a2c"></circle><circle cx="264" cy="168" r="1.4" fill="#2a3a2c"></circle><circle cx="312" cy="168" r="1.4" fill="#2a3a2c"></circle><circle cx="360" cy="168" r="1.4" fill="#2a3a2c"></circle><circle cx="408" cy="168" r="1.4" fill="#2a3a2c"></circle><circle cx="456" cy="168" r="1.4" fill="#2a3a2c"></circle><circle cx="24" cy="216" r="1.4" fill="#2a3a2c"></circle><circle cx="72" cy="216" r="1.4" fill="#2a3a2c"></circle><circle cx="120" cy="216" r="1.4" fill="#2a3a2c"></circle><circle cx="168" cy="216" r="1.4" fill="#2a3a2c"></circle><circle cx="216" cy="216" r="1.4" fill="#2a3a2c"></circle><circle cx="264" cy="216" r="1.4" fill="#2a3a2c"></circle><circle cx="312" cy="216" r="1.4" fill="#2a3a2c"></circle><circle cx="360" cy="216" r="1.4" fill="#2a3a2c"></circle><circle cx="408" cy="216" r="1.4" fill="#2a3a2c"></circle><circle cx="456" cy="216" r="1.4" fill="#2a3a2c"></circle><circle cx="24" cy="264" r="1.4" fill="#2a3a2c"></circle><circle cx="72" cy="264" r="1.4" fill="#2a3a2c"></circle><circle cx="120" cy="264" r="1.4" fill="#2a3a2c"></circle><circle cx="168" cy="264" r="1.4" fill="#2a3a2c"></circle><circle cx="216" cy="264" r="1.4" fill="#2a3a2c"></circle><circle cx="264" cy="264" r="1.4" fill="#2a3a2c"></circle><circle cx="312" cy="264" r="1.4" fill="#2a3a2c"></circle><circle cx="360" cy="264" r="1.4" fill="#2a3a2c"></circle><circle cx="408" cy="264" r="1.4" fill="#2a3a2c"></circle><circle cx="456" cy="264" r="1.4" fill="#2a3a2c"></circle><circle cx="24" cy="312" r="1.4" fill="#2a3a2c"></circle><circle cx="72" cy="312" r="1.4" fill="#2a3a2c"></circle><circle cx="120" cy="312" r="1.4" fill="#2a3a2c"></circle><circle cx="168" cy="312" r="1.4" fill="#2a3a2c"></circle><circle cx="216" cy="312" r="1.4" fill="#2a3a2c"></circle><circle cx="264" cy="312" r="1.4" fill="#2a3a2c"></circle><circle cx="312" cy="312" r="1.4" fill="#2a3a2c"></circle><circle cx="360" cy="312" r="1.4" fill="#2a3a2c"></circle><circle cx="408" cy="312" r="1.4" fill="#2a3a2c"></circle><circle cx="456" cy="312" r="1.4" fill="#2a3a2c"></circle><circle cx="24" cy="360" r="1.4" fill="#2a3a2c"></circle><circle cx="72" cy="360" r="1.4" fill="#2a3a2c"></circle><circle cx="120" cy="360" r="1.4" fill="#2a3a2c"></circle><circle cx="168" cy="360" r="1.4" fill="#2a3a2c"></circle><circle cx="216" cy="360" r="1.4" fill="#2a3a2c"></circle><circle cx="264" cy="360" r="1.4" fill="#2a3a2c"></circle><circle cx="312" cy="360" r="1.4" fill="#2a3a2c"></circle><circle cx="360" cy="360" r="1.4" fill="#2a3a2c"></circle><circle cx="408" cy="360" r="1.4" fill="#2a3a2c"></circle><circle cx="456" cy="360" r="1.4" fill="#2a3a2c"></circle><circle cx="24" cy="408" r="1.4" fill="#2a3a2c"></circle><circle cx="72" cy="408" r="1.4" fill="#2a3a2c"></circle><circle cx="120" cy="408" r="1.4" fill="#2a3a2c"></circle><circle cx="168" cy="408" r="1.4" fill="#2a3a2c"></circle><circle cx="216" cy="408" r="1.4" fill="#2a3a2c"></circle><circle cx="264" cy="408" r="1.4" fill="#2a3a2c"></circle><circle cx="312" cy="408" r="1.4" fill="#2a3a2c"></circle><circle cx="360" cy="408" r="1.4" fill="#2a3a2c"></circle><circle cx="408" cy="408" r="1.4" fill="#2a3a2c"></circle><circle cx="456" cy="408" r="1.4" fill="#2a3a2c"></circle><circle cx="24" cy="456" r="1.4" fill="#2a3a2c"></circle><circle cx="72" cy="456" r="1.4" fill="#2a3a2c"></circle><circle cx="120" cy="456" r="1.4" fill="#2a3a2c"></circle><circle cx="168" cy="456" r="1.4" fill="#2a3a2c"></circle><circle cx="216" cy="456" r="1.4" fill="#2a3a2c"></circle><circle cx="264" cy="456" r="1.4" fill="#2a3a2c"></circle><circle cx="312" cy="456" r="1.4" fill="#2a3a2c"></circle><circle cx="360" cy="456" r="1.4" fill="#2a3a2c"></circle><circle cx="408" cy="456" r="1.4" fill="#2a3a2c"></circle><circle cx="456" cy="456" r="1.4" fill="#2a3a2c"></circle><circle cx="24" cy="504" r="1.4" fill="#2a3a2c"></circle><circle cx="72" cy="504" r="1.4" fill="#2a3a2c"></circle><circle cx="120" cy="504" r="1.4" fill="#2a3a2c"></circle><circle cx="168" cy="504" r="1.4" fill="#2a3a2c"></circle><circle cx="216" cy="504" r="1.4" fill="#2a3a2c"></circle><circle cx="264" cy="504" r="1.4" fill="#2a3a2c"></circle><circle cx="312" cy="504" r="1.4" fill="#2a3a2c"></circle><circle cx="360" cy="504" r="1.4" fill="#2a3a2c"></circle><circle cx="408" cy="504" r="1.4" fill="#2a3a2c"></circle><circle cx="456" cy="504" r="1.4" fill="#2a3a2c"></circle><circle cx="24" cy="552" r="1.4" fill="#2a3a2c"></circle><circle cx="72" cy="552" r="1.4" fill="#2a3a2c"></circle><circle cx="120" cy="552" r="1.4" fill="#2a3a2c"></circle><circle cx="168" cy="552" r="1.4" fill="#2a3a2c"></circle><circle cx="216" cy="552" r="1.4" fill="#2a3a2c"></circle><circle cx="264" cy="552" r="1.4" fill="#2a3a2c"></circle><circle cx="312" cy="552" r="1.4" fill="#2a3a2c"></circle><circle cx="360" cy="552" r="1.4" fill="#2a3a2c"></circle><circle cx="408" cy="552" r="1.4" fill="#2a3a2c"></circle><circle cx="456" cy="552" r="1.4" fill="#2a3a2c"></circle><g transform="translate(240,255)"><circle r="112" fill="none" stroke="#8ABB2A" stroke-width="1.5" opacity="0.35"></circle><circle r="150" fill="none" stroke="#8ABB2A" stroke-width="1" opacity="0.18"></circle><g transform="translate(-60,-60) scale(5)" fill="none" stroke="#cfe8a6" stroke-width="1.4" stroke-linecap="round" stroke-linejoin="round"><path d="M9 3h6"></path><path d="M10 3v5.5L4.8 18a2 2 0 0 0 1.8 3h10.8a2 2 0 0 0 1.8-3L14 8.5V3"></path><path d="M7 15h10"></path></g></g></svg>