<svg xmlns="http://www.w3.org/2000/svg" viewBox="0 0 980 640" width="980" height="640"><defs><linearGradient id="g" x1="0" y1="0" x2="1" y2="1"><stop offset="0" stop-color="#8ABB2A"></stop><stop offset="1" stop-color="#248332"></stop></linearGradient></defs><line x1="490" y1="320" x2="490.0" y2="88.0" stroke="#c9d6bf" stroke-width="1.5"></line><line x1="490" y1="320" x2="654.0" y2="156.0" stroke="#c9d6bf" stroke-width="1.5"></line><line x1="490" y1="320" x2="722.0" y2="320.0" stroke="#c9d6bf" stroke-width="1.5"></line><line x1="490" y1="320" x2="654.0" y2="484.0" stroke="#c9d6bf" stroke-width="1.5"></line><line x1="490" y1="320" x2="490.0" y2="552.0" stroke="#c9d6bf" stroke-width="1.5"></line><line x1="490" y1="320" x2="326.0" y2="484.0" stroke="#c9d6bf" stroke-width="1.5"></line><line x1="490" y1="320" x2="258.0" y2="320.0" stroke="#c9d6bf" stroke-width="1.5"></line><line x1="490" y1="320" x2="326.0" y2="156.0" stroke="#c9d6bf" stroke-width="1.5"></line><circle cx="490" cy="320" r="86" fill="url(#g)"></circle><circle cx="490" cy="320" r="86" fill="none" stroke="#ffffff" stroke-width="0"></circle><text x="490" y="316" font-family="&#39;Manrope&#39;,sans-serif" font-size="34" font-weight="800" fill="#ffffff" text-anchor="middle" letter-spacing="-1">nexus</text><text x="490" y="340" font-family="&#39;Space Grotesk&#39;,sans-serif" font-size="11.5" font-weight="600" fill="rgba(255,255,255,.85)" text-anchor="middle" letter-spacing="2">ONE PARTNER</text><g><rect x="426.5" y="67.0" width="127.0" height="42" rx="21" fill="#ffffff" stroke="#8ABB2A" stroke-width="1.5"></rect><circle cx="444.5" cy="88" r="4" fill="#248332"></circle><text x="499.0" y="93.0" font-family="&#39;Space Grotesk&#39;,sans-serif" font-size="15.5" font-weight="600" fill="#13211A" text-anchor="middle">Managed IT</text></g><g><rect x="576.6" y="135.0" width="154.9" height="42" rx="21" fill="#ffffff" stroke="#8ABB2A" stroke-width="1.5"></rect><circle cx="594.6" cy="155.95122676472099" r="4" fill="#248332"></circle><text x="663.0" y="161.0" font-family="&#39;Space Grotesk&#39;,sans-serif" font-size="15.5" font-weight="600" fill="#13211A" text-anchor="middle">Cybersecurity</text></g><g><rect x="658.5" y="299.0" width="127.0" height="42" rx="21" fill="#ffffff" stroke="#8ABB2A" stroke-width="1.5"></rect><circle cx="676.5" cy="320" r="4" fill="#248332"></circle><text x="731.0" y="325.0" font-family="&#39;Space Grotesk&#39;,sans-serif" font-size="15.5" font-weight="600" fill="#13211A" text-anchor="middle">Networking</text></g><g><rect x="571.9" y="463.0" width="164.2" height="42" rx="21" fill="#ffffff" stroke="#8ABB2A" stroke-width="1.5"></rect><circle cx="589.9" cy="484.048773235279" r="4" fill="#248332"></circle><text x="663.0" y="489.0" font-family="&#39;Space Grotesk&#39;,sans-serif" font-size="15.5" font-weight="600" fill="#13211A" text-anchor="middle">Meeting Spaces</text></g><g><rect x="403.3" y="531.0" width="173.5" height="42" rx="21" fill="#ffffff" stroke="#8ABB2A" stroke-width="1.5"></rect><circle cx="421.3" cy="552" r="4" fill="#248332"></circle><text x="499.0" y="557.0" font-family="&#39;Space Grotesk&#39;,sans-serif" font-size="15.5" font-weight="600" fill="#13211A" text-anchor="middle">Digital Signage</text></g><g><rect x="229.9" y="463.0" width="192.1" height="42" rx="21" fill="#ffffff" stroke="#8ABB2A" stroke-width="1.5"></rect><circle cx="247.9" cy="484.04877323527904" r="4" fill="#248332"></circle><text x="335.0" y="489.0" font-family="&#39;Space Grotesk&#39;,sans-serif" font-size="15.5" font-weight="600" fill="#13211A" text-anchor="middle">Site Intelligence</text></g><g><rect x="175.9" y="299.0" width="164.2" height="42" rx="21" fill="#ffffff" stroke="#8ABB2A" stroke-width="1.5"></rect><circle cx="193.9" cy="320" r="4" fill="#248332"></circle><text x="267.0" y="325.0" font-family="&#39;Space Grotesk&#39;,sans-serif" font-size="15.5" font-weight="600" fill="#13211A" text-anchor="middle">Building Audio</text></g><g><rect x="267.0" y="135.0" width="118.0" height="42" rx="21" fill="#ffffff" stroke="#8ABB2A" stroke-width="1.5"></rect><circle cx="285.0" cy="155.95122676472099" r="4" fill="#248332"></circle><text x="335.0" y="161.0" font-family="&#39;Space Grotesk&#39;,sans-serif" font-size="15.5" font-weight="600" fill="#13211A" text-anchor="middle">Cellular</text></g></svg>