<svg xmlns="http://www.w3.org/2000/svg" xmlns:xlink="http://www.w3.org/1999/xlink" width="188.153" height="44.809" viewBox="0 0 188.153 44.809">
  <defs>
    <linearGradient id="linear-gradient" y1="0.5" x2="1" y2="0.5" gradientUnits="objectBoundingBox">
      <stop offset="0" stop-color="#8abb2a"></stop>
      <stop offset="1" stop-color="#248332"></stop>
    </linearGradient>
  </defs>
  <g id="Group_3229" data-name="Group 3229" transform="translate(-852 -492)">
    <g id="Group_3" data-name="Group 3" transform="translate(852 492)">
      <path id="Path_1" data-name="Path 1" d="M162.919,109.988a22.4,22.4,0,1,0,22.4,22.4A22.43,22.43,0,0,0,162.919,109.988Zm9.242,37.563-.606-.606,0-.006c-1.145-1.152-2.29-2.3-3.435-3.45l-.051-.051a.436.436,0,0,0-.058-.051c-.912-.9-1.773-1.838-2.677-2.742-1.554-1.539-3.144-3.041-4.7-4.58-.16-.168-.328-.328-.488-.5a4.122,4.122,0,0,1-1.437-3.3,5.156,5.156,0,0,0-4.3-5.339,5.366,5.366,0,0,0-6.032,3.6,5.062,5.062,0,0,0,2.691,6.382,3.468,3.468,0,0,0,2.013.635c.795-.044,1.313-.285,2.093.109a6.825,6.825,0,0,1,1.6,1.291q3.906,3.9,7.819,7.783a.591.591,0,0,0,.087.1q1.372,1.372,2.737,2.743a17.753,17.753,0,0,1-14.211-32.037l2.9,2.9h0l.94.944a1.244,1.244,0,0,0,.175.153c1.145,1.058,2.181,2.224,3.29,3.326,1.561,1.539,3.151,3.049,4.7,4.588.167.16.328.328.5.488a4.124,4.124,0,0,1,1.437,3.3,5.144,5.144,0,0,0,4.3,5.339,5.357,5.357,0,0,0,6.024-3.6,5.068,5.068,0,0,0-2.684-6.382,3.474,3.474,0,0,0-2.02-.635c-.788.044-1.306.292-2.093-.109a6.609,6.609,0,0,1-1.6-1.291q-5.426-5.394-10.846-10.795c-.127-.127-.258-.255-.385-.382a17.755,17.755,0,0,1,14.321,32.174Zm-16.6-15.643c0,.014.007.029.007.044s.007.029.007.043.007.037.007.058v.022c.007.007.007.007.007.015v.051a.627.627,0,0,1,.014.11,3.265,3.265,0,0,1-.314,1.036,2.1,2.1,0,0,1-.211.321c-.044.051-.088.095-.132.146a2.088,2.088,0,0,1-1.524.562,1.984,1.984,0,0,1-2.1-2.239,2.1,2.1,0,0,1,2.2-2.035,2.151,2.151,0,0,1,1.9,1.342c.022.058.044.132.065.2s.029.095.044.146a.042.042,0,0,0,.007.029.046.046,0,0,0,.007.029c0,.029.007.051.007.073v.007A.1.1,0,0,1,155.563,131.908Zm14.719,1.692a.113.113,0,0,1-.007-.051.089.089,0,0,1-.007-.043.124.124,0,0,1-.007-.051.045.045,0,0,1-.007-.029v-.015c0-.014-.007-.036-.007-.051a.574.574,0,0,1-.007-.11,2.924,2.924,0,0,1,.314-1.036,1.64,1.64,0,0,1,.211-.321,1.129,1.129,0,0,1,.124-.139,2.087,2.087,0,0,1,1.524-.569,1.988,1.988,0,0,1,2.108,2.246,2.122,2.122,0,0,1-4.092.693,1.566,1.566,0,0,1-.073-.2.847.847,0,0,1-.037-.146.028.028,0,0,1-.007-.022.321.321,0,0,0-.007-.036c-.007-.022-.007-.051-.014-.073v-.007C170.289,133.629,170.282,133.607,170.282,133.6Z" transform="translate(-140.514 -109.988)" fill="url(#linear-gradient)"></path>
      <g id="Group_1" fill="#ffffff" data-name="Group 1" transform="translate(53.001 4.004)">
        <path id="Path_2" data-name="Path 2" d="M259.107,119.357l.263.263v.788a13.64,13.64,0,0,1,6.563-1.838c7.876,0,11.814,4.463,11.814,11.551v13.651l-.263.263h-4.726l-.262-.263V130.384c0-4.2-2.1-6.825-6.563-6.825a8.871,8.871,0,0,0-6.563,2.625v17.589l-.263.263h-4.726l-.263-.263V119.62l.263-.263Z" transform="translate(-254.119 -118.57)"></path>
        <path id="Path_3" data-name="Path 3" d="M322.914,133.154v.266c0,4.365,2.928,7.026,6.814,7.026,2.715,0,4.631-1.277,6.228-3.833l.479-.106,4.419,2.129a12.18,12.18,0,0,1-11.286,6.441c-7.666,0-12.67-5.324-12.67-12.883,0-7.666,5.11-12.936,12.457-12.936,7.133,0,12.031,4.845,12.031,12.883a7.546,7.546,0,0,1-.053,1.011Zm.106-3.567h12.4c-.213-3.673-2.555-5.856-6.069-5.856C326,123.732,323.553,125.915,323.02,129.588Z" transform="translate(-287.609 -118.938)"></path>
        <path id="Path_4" data-name="Path 4" d="M381.295,120.258l.525.263,5.25,7.351,5.251-7.351.525-.263h5.513l.263.263-8.4,11.551,8.926,12.6-.262.263h-5.513l-.525-.263-5.776-8.138-5.775,8.138-.525.263h-5.514l-.262-.263,8.926-12.6-8.4-11.551.263-.263Z" transform="translate(-318.601 -119.47)"></path>
        <path id="Path_5" data-name="Path 5" d="M440.756,120.258l.263.263v13.389c0,4.2,2.1,6.826,6.563,6.826a8.871,8.871,0,0,0,6.563-2.625V120.521l.263-.263h4.725l.263.263v24.152l-.263.263h-4.725l-.263-.263v-.787a13.644,13.644,0,0,1-6.563,1.837c-7.876,0-11.814-4.463-11.814-11.551V120.521l.263-.263Z" transform="translate(-351.022 -119.47)"></path>
        <path id="Path_6" data-name="Path 6" d="M518.109,126.183a13.467,13.467,0,0,0-7.876-2.625c-2.362,0-3.675,1.05-3.675,2.363,0,4.463,14.439.788,14.439,11.026,0,4.463-3.938,7.876-10.238,7.876-3.151,0-7.088-.788-9.451-2.363v-5.25l.262-.263a17.939,17.939,0,0,0,9.189,2.888c3.675,0,4.726-1.05,4.726-2.888,0-4.988-14.439-1.313-14.439-11.026,0-4.2,3.675-7.351,9.188-7.351a15.589,15.589,0,0,1,8.138,2.1v5.251Z" transform="translate(-385.845 -118.57)"></path>
      </g>
      </g>
  </g>
</svg>