<svg xmlns="http://www.w3.org/2000/svg" viewBox="0 0 900 1000" width="900" height="1000"><defs><linearGradient id="g" x1="0" y1="0" x2="1" y2="1"><stop offset="0" stop-color="#8ABB2A"></stop><stop offset="1" stop-color="#248332"></stop></linearGradient></defs><line x1="525.7" y1="323.4" x2="507.5" y2="268.9" stroke="url(#g)" stroke-width="1" opacity="0.46"></line><line x1="525.7" y1="323.4" x2="573.9" y2="397.1" stroke="url(#g)" stroke-width="1" opacity="0.435"></line><line x1="525.7" y1="323.4" x2="495.3" y2="236.5" stroke="url(#g)" stroke-width="1" opacity="0.435"></line><line x1="829.9" y1="651.5" x2="723.1" y2="591.4" stroke="url(#g)" stroke-width="1" opacity="0.41"></line><line x1="829.9" y1="651.5" x2="780.7" y2="772.4" stroke="url(#g)" stroke-width="1" opacity="0.405"></line><line x1="829.9" y1="651.5" x2="715.4" y2="588.7" stroke="url(#g)" stroke-width="1" opacity="0.405"></line><line x1="738.5" y1="865.5" x2="697.7" y2="795.5" stroke="url(#g)" stroke-width="1" opacity="0.44"></line><line x1="738.5" y1="865.5" x2="780.7" y2="772.4" stroke="url(#g)" stroke-width="1" opacity="0.425"></line><line x1="738.5" y1="865.5" x2="618.9" y2="710.1" stroke="url(#g)" stroke-width="1" opacity="0.36"></line><line x1="838.0" y1="244.5" x2="787.1" y2="278.8" stroke="url(#g)" stroke-width="1" opacity="0.455"></line><line x1="838.0" y1="244.5" x2="834.4" y2="112.0" stroke="url(#g)" stroke-width="1" opacity="0.405"></line><line x1="838.0" y1="244.5" x2="686.1" y2="188.8" stroke="url(#g)" stroke-width="1" opacity="0.385"></line><line x1="834.4" y1="112.0" x2="838.0" y2="244.5" stroke="url(#g)" stroke-width="1" opacity="0.405"></line><line x1="834.4" y1="112.0" x2="686.1" y2="188.8" stroke="url(#g)" stroke-width="1" opacity="0.38"></line><line x1="834.4" y1="112.0" x2="787.1" y2="278.8" stroke="url(#g)" stroke-width="1" opacity="0.375"></line><line x1="83.6" y1="123.4" x2="88.2" y2="358.3" stroke="url(#g)" stroke-width="1" opacity="0.33"></line><line x1="83.6" y1="123.4" x2="290.1" y2="457.7" stroke="url(#g)" stroke-width="1" opacity="0.22"></line><line x1="83.6" y1="123.4" x2="495.3" y2="236.5" stroke="url(#g)" stroke-width="1" opacity="0.195"></line><line x1="780.7" y1="772.4" x2="697.7" y2="795.5" stroke="url(#g)" stroke-width="1" opacity="0.44"></line><line x1="780.7" y1="772.4" x2="738.5" y2="865.5" stroke="url(#g)" stroke-width="1" opacity="0.425"></line><line x1="780.7" y1="772.4" x2="829.9" y2="651.5" stroke="url(#g)" stroke-width="1" opacity="0.405"></line><line x1="109.7" y1="603.9" x2="290.1" y2="457.7" stroke="url(#g)" stroke-width="1" opacity="0.335"></line><line x1="109.7" y1="603.9" x2="88.2" y2="358.3" stroke="url(#g)" stroke-width="1" opacity="0.325"></line><line x1="109.7" y1="603.9" x2="366.9" y2="615.8" stroke="url(#g)" stroke-width="1" opacity="0.315"></line><line x1="219.0" y1="845.2" x2="109.7" y2="603.9" stroke="url(#g)" stroke-width="1" opacity="0.31"></line><line x1="219.0" y1="845.2" x2="366.9" y2="615.8" stroke="url(#g)" stroke-width="1" opacity="0.305"></line><line x1="219.0" y1="845.2" x2="290.1" y2="457.7" stroke="url(#g)" stroke-width="1" opacity="0.22"></line><line x1="686.1" y1="188.8" x2="661.5" y2="238.1" stroke="url(#g)" stroke-width="1" opacity="0.46"></line><line x1="686.1" y1="188.8" x2="787.1" y2="278.8" stroke="url(#g)" stroke-width="1" opacity="0.405"></line><line x1="686.1" y1="188.8" x2="676.3" y2="335.3" stroke="url(#g)" stroke-width="1" opacity="0.395"></line><line x1="618.9" y1="710.1" x2="697.7" y2="795.5" stroke="url(#g)" stroke-width="1" opacity="0.415"></line><line x1="618.9" y1="710.1" x2="619.6" y2="576.4" stroke="url(#g)" stroke-width="1" opacity="0.405"></line><line x1="618.9" y1="710.1" x2="715.4" y2="588.7" stroke="url(#g)" stroke-width="1" opacity="0.39"></line><line x1="697.7" y1="795.5" x2="738.5" y2="865.5" stroke="url(#g)" stroke-width="1" opacity="0.44"></line><line x1="697.7" y1="795.5" x2="780.7" y2="772.4" stroke="url(#g)" stroke-width="1" opacity="0.44"></line><line x1="697.7" y1="795.5" x2="618.9" y2="710.1" stroke="url(#g)" stroke-width="1" opacity="0.415"></line><line x1="88.2" y1="358.3" x2="290.1" y2="457.7" stroke="url(#g)" stroke-width="1" opacity="0.34"></line><line x1="88.2" y1="358.3" x2="83.6" y2="123.4" stroke="url(#g)" stroke-width="1" opacity="0.33"></line><line x1="88.2" y1="358.3" x2="109.7" y2="603.9" stroke="url(#g)" stroke-width="1" opacity="0.325"></line><line x1="573.9" y1="397.1" x2="507.8" y2="425.3" stroke="url(#g)" stroke-width="1" opacity="0.45"></line><line x1="573.9" y1="397.1" x2="525.7" y2="323.4" stroke="url(#g)" stroke-width="1" opacity="0.435"></line><line x1="573.9" y1="397.1" x2="676.3" y2="335.3" stroke="url(#g)" stroke-width="1" opacity="0.415"></line><line x1="676.3" y1="335.3" x2="661.5" y2="238.1" stroke="url(#g)" stroke-width="1" opacity="0.43"></line><line x1="676.3" y1="335.3" x2="573.9" y2="397.1" stroke="url(#g)" stroke-width="1" opacity="0.415"></line><line x1="676.3" y1="335.3" x2="787.1" y2="278.8" stroke="url(#g)" stroke-width="1" opacity="0.41"></line><line x1="495.3" y1="236.5" x2="507.5" y2="268.9" stroke="url(#g)" stroke-width="1" opacity="0.475"></line><line x1="495.3" y1="236.5" x2="525.7" y2="323.4" stroke="url(#g)" stroke-width="1" opacity="0.435"></line><line x1="495.3" y1="236.5" x2="661.5" y2="238.1" stroke="url(#g)" stroke-width="1" opacity="0.38"></line><line x1="507.8" y1="425.3" x2="573.9" y2="397.1" stroke="url(#g)" stroke-width="1" opacity="0.45"></line><line x1="507.8" y1="425.3" x2="521.2" y2="522.1" stroke="url(#g)" stroke-width="1" opacity="0.43"></line><line x1="507.8" y1="425.3" x2="525.7" y2="323.4" stroke="url(#g)" stroke-width="1" opacity="0.425"></line><line x1="715.4" y1="588.7" x2="723.1" y2="591.4" stroke="url(#g)" stroke-width="1" opacity="0.495"></line><line x1="715.4" y1="588.7" x2="619.6" y2="576.4" stroke="url(#g)" stroke-width="1" opacity="0.43"></line><line x1="715.4" y1="588.7" x2="829.9" y2="651.5" stroke="url(#g)" stroke-width="1" opacity="0.405"></line><line x1="619.6" y1="576.4" x2="715.4" y2="588.7" stroke="url(#g)" stroke-width="1" opacity="0.43"></line><line x1="619.6" y1="576.4" x2="723.1" y2="591.4" stroke="url(#g)" stroke-width="1" opacity="0.425"></line><line x1="619.6" y1="576.4" x2="521.2" y2="522.1" stroke="url(#g)" stroke-width="1" opacity="0.42"></line><line x1="507.5" y1="268.9" x2="495.3" y2="236.5" stroke="url(#g)" stroke-width="1" opacity="0.475"></line><line x1="507.5" y1="268.9" x2="525.7" y2="323.4" stroke="url(#g)" stroke-width="1" opacity="0.46"></line><line x1="507.5" y1="268.9" x2="573.9" y2="397.1" stroke="url(#g)" stroke-width="1" opacity="0.395"></line><line x1="521.2" y1="522.1" x2="507.8" y2="425.3" stroke="url(#g)" stroke-width="1" opacity="0.43"></line><line x1="521.2" y1="522.1" x2="619.6" y2="576.4" stroke="url(#g)" stroke-width="1" opacity="0.42"></line><line x1="521.2" y1="522.1" x2="573.9" y2="397.1" stroke="url(#g)" stroke-width="1" opacity="0.405"></line><line x1="290.1" y1="457.7" x2="366.9" y2="615.8" stroke="url(#g)" stroke-width="1" opacity="0.375"></line><line x1="290.1" y1="457.7" x2="507.8" y2="425.3" stroke="url(#g)" stroke-width="1" opacity="0.345"></line><line x1="290.1" y1="457.7" x2="88.2" y2="358.3" stroke="url(#g)" stroke-width="1" opacity="0.34"></line><line x1="661.5" y1="238.1" x2="686.1" y2="188.8" stroke="url(#g)" stroke-width="1" opacity="0.46"></line><line x1="661.5" y1="238.1" x2="676.3" y2="335.3" stroke="url(#g)" stroke-width="1" opacity="0.43"></line><line x1="661.5" y1="238.1" x2="787.1" y2="278.8" stroke="url(#g)" stroke-width="1" opacity="0.405"></line><line x1="723.1" y1="591.4" x2="715.4" y2="588.7" stroke="url(#g)" stroke-width="1" opacity="0.495"></line><line x1="723.1" y1="591.4" x2="619.6" y2="576.4" stroke="url(#g)" stroke-width="1" opacity="0.425"></line><line x1="723.1" y1="591.4" x2="829.9" y2="651.5" stroke="url(#g)" stroke-width="1" opacity="0.41"></line><line x1="787.1" y1="278.8" x2="838.0" y2="244.5" stroke="url(#g)" stroke-width="1" opacity="0.455"></line><line x1="787.1" y1="278.8" x2="676.3" y2="335.3" stroke="url(#g)" stroke-width="1" opacity="0.41"></line><line x1="787.1" y1="278.8" x2="661.5" y2="238.1" stroke="url(#g)" stroke-width="1" opacity="0.405"></line><line x1="366.9" y1="615.8" x2="290.1" y2="457.7" stroke="url(#g)" stroke-width="1" opacity="0.375"></line><line x1="366.9" y1="615.8" x2="521.2" y2="522.1" stroke="url(#g)" stroke-width="1" opacity="0.37"></line><line x1="366.9" y1="615.8" x2="507.8" y2="425.3" stroke="url(#g)" stroke-width="1" opacity="0.33"></line><circle cx="525.7" cy="323.4" r="4.2" fill="url(#g)" opacity="0.85"></circle><circle cx="829.9" cy="651.5" r="4.1" fill="url(#g)" opacity="0.85"></circle><circle cx="738.5" cy="865.5" r="2.3" fill="url(#g)" opacity="0.85"></circle><circle cx="838.0" cy="244.5" r="2.8" fill="url(#g)" opacity="0.85"></circle><circle cx="834.4" cy="112.0" r="3.5" fill="url(#g)" opacity="0.85"></circle><circle cx="83.6" cy="123.4" r="4.7" fill="url(#g)" opacity="0.85"></circle><circle cx="780.7" cy="772.4" r="5.0" fill="url(#g)" opacity="0.85"></circle><circle cx="109.7" cy="603.9" r="4.0" fill="url(#g)" opacity="0.85"></circle><circle cx="219.0" cy="845.2" r="2.3" fill="url(#g)" opacity="0.85"></circle><circle cx="686.1" cy="188.8" r="2.1" fill="url(#g)" opacity="0.85"></circle><circle cx="618.9" cy="710.1" r="5.5" fill="url(#g)" opacity="0.85"></circle><circle cx="697.7" cy="795.5" r="5.0" fill="url(#g)" opacity="0.85"></circle><circle cx="88.2" cy="358.3" r="2.6" fill="url(#g)" opacity="0.85"></circle><circle cx="573.9" cy="397.1" r="3.2" fill="url(#g)" opacity="0.85"></circle><circle cx="676.3" cy="335.3" r="5.5" fill="url(#g)" opacity="0.85"></circle><circle cx="495.3" cy="236.5" r="3.8" fill="url(#g)" opacity="0.85"></circle><circle cx="507.8" cy="425.3" r="3.2" fill="url(#g)" opacity="0.85"></circle><circle cx="715.4" cy="588.7" r="3.4" fill="url(#g)" opacity="0.85"></circle><circle cx="619.6" cy="576.4" r="3.6" fill="url(#g)" opacity="0.85"></circle><circle cx="507.5" cy="268.9" r="2.3" fill="url(#g)" opacity="0.85"></circle><circle cx="521.2" cy="522.1" r="3.8" fill="url(#g)" opacity="0.85"></circle><circle cx="290.1" cy="457.7" r="2.3" fill="url(#g)" opacity="0.85"></circle><circle cx="661.5" cy="238.1" r="2.5" fill="url(#g)" opacity="0.85"></circle><circle cx="723.1" cy="591.4" r="4.5" fill="url(#g)" opacity="0.85"></circle><circle cx="787.1" cy="278.8" r="3.9" fill="url(#g)" opacity="0.85"></circle><circle cx="366.9" cy="615.8" r="4.7" fill="url(#g)" opacity="0.85"></circle><circle cx="450" cy="420" r="11" fill="url(#g)"></circle><circle cx="450" cy="420" r="26" fill="none" stroke="url(#g)" stroke-width="1.5" opacity="0.5"></circle><circle cx="450" cy="420" r="44" fill="none" stroke="url(#g)" stroke-width="1" opacity="0.28"></circle></svg>