<svg xmlns="http://www.w3.org/2000/svg" viewBox="0 0 960 600" width="960" height="600"><defs><linearGradient id="hg" x1="0" y1="0" x2="1" y2="1"><stop offset="0" stop-color="#12241a"></stop><stop offset="1" stop-color="#0b140e"></stop></linearGradient><linearGradient id="ac" x1="0" y1="0" x2="1" y2="0"><stop offset="0" stop-color="#8ABB2A"></stop><stop offset="1" stop-color="#248332"></stop></linearGradient></defs><rect width="960" height="600" fill="url(#hg)"></rect><circle cx="24" cy="24" r="1.3" fill="#233221"></circle><circle cx="72" cy="24" r="1.3" fill="#233221"></circle><circle cx="120" cy="24" r="1.3" fill="#233221"></circle><circle cx="168" cy="24" r="1.3" fill="#233221"></circle><circle cx="216" cy="24" r="1.3" fill="#233221"></circle><circle cx="264" cy="24" r="1.3" fill="#233221"></circle><circle cx="312" cy="24" r="1.3" fill="#233221"></circle><circle cx="360" cy="24" r="1.3" fill="#233221"></circle><circle cx="408" cy="24" r="1.3" fill="#233221"></circle><circle cx="456" cy="24" r="1.3" fill="#233221"></circle><circle cx="504" cy="24" r="1.3" fill="#233221"></circle><circle cx="552" cy="24" r="1.3" fill="#233221"></circle><circle cx="600" cy="24" r="1.3" fill="#233221"></circle><circle cx="648" cy="24" r="1.3" fill="#233221"></circle><circle cx="696" cy="24" r="1.3" fill="#233221"></circle><circle cx="744" cy="24" r="1.3" fill="#233221"></circle><circle cx="792" cy="24" r="1.3" fill="#233221"></circle><circle cx="840" cy="24" r="1.3" fill="#233221"></circle><circle cx="888" cy="24" r="1.3" fill="#233221"></circle><circle cx="936" cy="24" r="1.3" fill="#233221"></circle><circle cx="24" cy="72" r="1.3" fill="#233221"></circle><circle cx="72" cy="72" r="1.3" fill="#233221"></circle><circle cx="120" cy="72" r="1.3" fill="#233221"></circle><circle cx="168" cy="72" r="1.3" fill="#233221"></circle><circle cx="216" cy="72" r="1.3" fill="#233221"></circle><circle cx="264" cy="72" r="1.3" fill="#233221"></circle><circle cx="312" cy="72" r="1.3" fill="#233221"></circle><circle cx="360" cy="72" r="1.3" fill="#233221"></circle><circle cx="408" cy="72" r="1.3" fill="#233221"></circle><circle cx="456" cy="72" r="1.3" fill="#233221"></circle><circle cx="504" cy="72" r="1.3" fill="#233221"></circle><circle cx="552" cy="72" r="1.3" fill="#233221"></circle><circle cx="600" cy="72" r="1.3" fill="#233221"></circle><circle cx="648" cy="72" r="1.3" fill="#233221"></circle><circle cx="696" cy="72" r="1.3" fill="#233221"></circle><circle cx="744" cy="72" r="1.3" fill="#233221"></circle><circle cx="792" cy="72" r="1.3" fill="#233221"></circle><circle cx="840" cy="72" r="1.3" fill="#233221"></circle><circle cx="888" cy="72" r="1.3" fill="#233221"></circle><circle cx="936" cy="72" r="1.3" fill="#233221"></circle><circle cx="24" cy="120" r="1.3" fill="#233221"></circle><circle cx="72" cy="120" r="1.3" fill="#233221"></circle><circle cx="120" cy="120" r="1.3" fill="#233221"></circle><circle cx="168" cy="120" r="1.3" fill="#233221"></circle><circle cx="216" cy="120" r="1.3" fill="#233221"></circle><circle cx="264" cy="120" r="1.3" fill="#233221"></circle><circle cx="312" cy="120" r="1.3" fill="#233221"></circle><circle cx="360" cy="120" r="1.3" fill="#233221"></circle><circle cx="408" cy="120" r="1.3" fill="#233221"></circle><circle cx="456" cy="120" r="1.3" fill="#233221"></circle><circle cx="504" cy="120" r="1.3" fill="#233221"></circle><circle cx="552" cy="120" r="1.3" fill="#233221"></circle><circle cx="600" cy="120" r="1.3" fill="#233221"></circle><circle cx="648" cy="120" r="1.3" fill="#233221"></circle><circle cx="696" cy="120" r="1.3" fill="#233221"></circle><circle cx="744" cy="120" r="1.3" fill="#233221"></circle><circle cx="792" cy="120" r="1.3" fill="#233221"></circle><circle cx="840" cy="120" r="1.3" fill="#233221"></circle><circle cx="888" cy="120" r="1.3" fill="#233221"></circle><circle cx="936" cy="120" r="1.3" fill="#233221"></circle><circle cx="24" cy="168" r="1.3" fill="#233221"></circle><circle cx="72" cy="168" r="1.3" fill="#233221"></circle><circle cx="120" cy="168" r="1.3" fill="#233221"></circle><circle cx="168" cy="168" r="1.3" fill="#233221"></circle><circle cx="216" cy="168" r="1.3" fill="#233221"></circle><circle cx="264" cy="168" r="1.3" fill="#233221"></circle><circle cx="312" cy="168" r="1.3" fill="#233221"></circle><circle cx="360" cy="168" r="1.3" fill="#233221"></circle><circle cx="408" cy="168" r="1.3" fill="#233221"></circle><circle cx="456" cy="168" r="1.3" fill="#233221"></circle><circle cx="504" cy="168" r="1.3" fill="#233221"></circle><circle cx="552" cy="168" r="1.3" fill="#233221"></circle><circle cx="600" cy="168" r="1.3" fill="#233221"></circle><circle cx="648" cy="168" r="1.3" fill="#233221"></circle><circle cx="696" cy="168" r="1.3" fill="#233221"></circle><circle cx="744" cy="168" r="1.3" fill="#233221"></circle><circle cx="792" cy="168" r="1.3" fill="#233221"></circle><circle cx="840" cy="168" r="1.3" fill="#233221"></circle><circle cx="888" cy="168" r="1.3" fill="#233221"></circle><circle cx="936" cy="168" r="1.3" fill="#233221"></circle><circle cx="24" cy="216" r="1.3" fill="#233221"></circle><circle cx="72" cy="216" r="1.3" fill="#233221"></circle><circle cx="120" cy="216" r="1.3" fill="#233221"></circle><circle cx="168" cy="216" r="1.3" fill="#233221"></circle><circle cx="216" cy="216" r="1.3" fill="#233221"></circle><circle cx="264" cy="216" r="1.3" fill="#233221"></circle><circle cx="312" cy="216" r="1.3" fill="#233221"></circle><circle cx="360" cy="216" r="1.3" fill="#233221"></circle><circle cx="408" cy="216" r="1.3" fill="#233221"></circle><circle cx="456" cy="216" r="1.3" fill="#233221"></circle><circle cx="504" cy="216" r="1.3" fill="#233221"></circle><circle cx="552" cy="216" r="1.3" fill="#233221"></circle><circle cx="600" cy="216" r="1.3" fill="#233221"></circle><circle cx="648" cy="216" r="1.3" fill="#233221"></circle><circle cx="696" cy="216" r="1.3" fill="#233221"></circle><circle cx="744" cy="216" r="1.3" fill="#233221"></circle><circle cx="792" cy="216" r="1.3" fill="#233221"></circle><circle cx="840" cy="216" r="1.3" fill="#233221"></circle><circle cx="888" cy="216" r="1.3" fill="#233221"></circle><circle cx="936" cy="216" r="1.3" fill="#233221"></circle><circle cx="24" cy="264" r="1.3" fill="#233221"></circle><circle cx="72" cy="264" r="1.3" fill="#233221"></circle><circle cx="120" cy="264" r="1.3" fill="#233221"></circle><circle cx="168" cy="264" r="1.3" fill="#233221"></circle><circle cx="216" cy="264" r="1.3" fill="#233221"></circle><circle cx="264" cy="264" r="1.3" fill="#233221"></circle><circle cx="312" cy="264" r="1.3" fill="#233221"></circle><circle cx="360" cy="264" r="1.3" fill="#233221"></circle><circle cx="408" cy="264" r="1.3" fill="#233221"></circle><circle cx="456" cy="264" r="1.3" fill="#233221"></circle><circle cx="504" cy="264" r="1.3" fill="#233221"></circle><circle cx="552" cy="264" r="1.3" fill="#233221"></circle><circle cx="600" cy="264" r="1.3" fill="#233221"></circle><circle cx="648" cy="264" r="1.3" fill="#233221"></circle><circle cx="696" cy="264" r="1.3" fill="#233221"></circle><circle cx="744" cy="264" r="1.3" fill="#233221"></circle><circle cx="792" cy="264" r="1.3" fill="#233221"></circle><circle cx="840" cy="264" r="1.3" fill="#233221"></circle><circle cx="888" cy="264" r="1.3" fill="#233221"></circle><circle cx="936" cy="264" r="1.3" fill="#233221"></circle><circle cx="24" cy="312" r="1.3" fill="#233221"></circle><circle cx="72" cy="312" r="1.3" fill="#233221"></circle><circle cx="120" cy="312" r="1.3" fill="#233221"></circle><circle cx="168" cy="312" r="1.3" fill="#233221"></circle><circle cx="216" cy="312" r="1.3" fill="#233221"></circle><circle cx="264" cy="312" r="1.3" fill="#233221"></circle><circle cx="312" cy="312" r="1.3" fill="#233221"></circle><circle cx="360" cy="312" r="1.3" fill="#233221"></circle><circle cx="408" cy="312" r="1.3" fill="#233221"></circle><circle cx="456" cy="312" r="1.3" fill="#233221"></circle><circle cx="504" cy="312" r="1.3" fill="#233221"></circle><circle cx="552" cy="312" r="1.3" fill="#233221"></circle><circle cx="600" cy="312" r="1.3" fill="#233221"></circle><circle cx="648" cy="312" r="1.3" fill="#233221"></circle><circle cx="696" cy="312" r="1.3" fill="#233221"></circle><circle cx="744" cy="312" r="1.3" fill="#233221"></circle><circle cx="792" cy="312" r="1.3" fill="#233221"></circle><circle cx="840" cy="312" r="1.3" fill="#233221"></circle><circle cx="888" cy="312" r="1.3" fill="#233221"></circle><circle cx="936" cy="312" r="1.3" fill="#233221"></circle><circle cx="24" cy="360" r="1.3" fill="#233221"></circle><circle cx="72" cy="360" r="1.3" fill="#233221"></circle><circle cx="120" cy="360" r="1.3" fill="#233221"></circle><circle cx="168" cy="360" r="1.3" fill="#233221"></circle><circle cx="216" cy="360" r="1.3" fill="#233221"></circle><circle cx="264" cy="360" r="1.3" fill="#233221"></circle><circle cx="312" cy="360" r="1.3" fill="#233221"></circle><circle cx="360" cy="360" r="1.3" fill="#233221"></circle><circle cx="408" cy="360" r="1.3" fill="#233221"></circle><circle cx="456" cy="360" r="1.3" fill="#233221"></circle><circle cx="504" cy="360" r="1.3" fill="#233221"></circle><circle cx="552" cy="360" r="1.3" fill="#233221"></circle><circle cx="600" cy="360" r="1.3" fill="#233221"></circle><circle cx="648" cy="360" r="1.3" fill="#233221"></circle><circle cx="696" cy="360" r="1.3" fill="#233221"></circle><circle cx="744" cy="360" r="1.3" fill="#233221"></circle><circle cx="792" cy="360" r="1.3" fill="#233221"></circle><circle cx="840" cy="360" r="1.3" fill="#233221"></circle><circle cx="888" cy="360" r="1.3" fill="#233221"></circle><circle cx="936" cy="360" r="1.3" fill="#233221"></circle><circle cx="24" cy="408" r="1.3" fill="#233221"></circle><circle cx="72" cy="408" r="1.3" fill="#233221"></circle><circle cx="120" cy="408" r="1.3" fill="#233221"></circle><circle cx="168" cy="408" r="1.3" fill="#233221"></circle><circle cx="216" cy="408" r="1.3" fill="#233221"></circle><circle cx="264" cy="408" r="1.3" fill="#233221"></circle><circle cx="312" cy="408" r="1.3" fill="#233221"></circle><circle cx="360" cy="408" r="1.3" fill="#233221"></circle><circle cx="408" cy="408" r="1.3" fill="#233221"></circle><circle cx="456" cy="408" r="1.3" fill="#233221"></circle><circle cx="504" cy="408" r="1.3" fill="#233221"></circle><circle cx="552" cy="408" r="1.3" fill="#233221"></circle><circle cx="600" cy="408" r="1.3" fill="#233221"></circle><circle cx="648" cy="408" r="1.3" fill="#233221"></circle><circle cx="696" cy="408" r="1.3" fill="#233221"></circle><circle cx="744" cy="408" r="1.3" fill="#233221"></circle><circle cx="792" cy="408" r="1.3" fill="#233221"></circle><circle cx="840" cy="408" r="1.3" fill="#233221"></circle><circle cx="888" cy="408" r="1.3" fill="#233221"></circle><circle cx="936" cy="408" r="1.3" fill="#233221"></circle><circle cx="24" cy="456" r="1.3" fill="#233221"></circle><circle cx="72" cy="456" r="1.3" fill="#233221"></circle><circle cx="120" cy="456" r="1.3" fill="#233221"></circle><circle cx="168" cy="456" r="1.3" fill="#233221"></circle><circle cx="216" cy="456" r="1.3" fill="#233221"></circle><circle cx="264" cy="456" r="1.3" fill="#233221"></circle><circle cx="312" cy="456" r="1.3" fill="#233221"></circle><circle cx="360" cy="456" r="1.3" fill="#233221"></circle><circle cx="408" cy="456" r="1.3" fill="#233221"></circle><circle cx="456" cy="456" r="1.3" fill="#233221"></circle><circle cx="504" cy="456" r="1.3" fill="#233221"></circle><circle cx="552" cy="456" r="1.3" fill="#233221"></circle><circle cx="600" cy="456" r="1.3" fill="#233221"></circle><circle cx="648" cy="456" r="1.3" fill="#233221"></circle><circle cx="696" cy="456" r="1.3" fill="#233221"></circle><circle cx="744" cy="456" r="1.3" fill="#233221"></circle><circle cx="792" cy="456" r="1.3" fill="#233221"></circle><circle cx="840" cy="456" r="1.3" fill="#233221"></circle><circle cx="888" cy="456" r="1.3" fill="#233221"></circle><circle cx="936" cy="456" r="1.3" fill="#233221"></circle><circle cx="24" cy="504" r="1.3" fill="#233221"></circle><circle cx="72" cy="504" r="1.3" fill="#233221"></circle><circle cx="120" cy="504" r="1.3" fill="#233221"></circle><circle cx="168" cy="504" r="1.3" fill="#233221"></circle><circle cx="216" cy="504" r="1.3" fill="#233221"></circle><circle cx="264" cy="504" r="1.3" fill="#233221"></circle><circle cx="312" cy="504" r="1.3" fill="#233221"></circle><circle cx="360" cy="504" r="1.3" fill="#233221"></circle><circle cx="408" cy="504" r="1.3" fill="#233221"></circle><circle cx="456" cy="504" r="1.3" fill="#233221"></circle><circle cx="504" cy="504" r="1.3" fill="#233221"></circle><circle cx="552" cy="504" r="1.3" fill="#233221"></circle><circle cx="600" cy="504" r="1.3" fill="#233221"></circle><circle cx="648" cy="504" r="1.3" fill="#233221"></circle><circle cx="696" cy="504" r="1.3" fill="#233221"></circle><circle cx="744" cy="504" r="1.3" fill="#233221"></circle><circle cx="792" cy="504" r="1.3" fill="#233221"></circle><circle cx="840" cy="504" r="1.3" fill="#233221"></circle><circle cx="888" cy="504" r="1.3" fill="#233221"></circle><circle cx="936" cy="504" r="1.3" fill="#233221"></circle><circle cx="24" cy="552" r="1.3" fill="#233221"></circle><circle cx="72" cy="552" r="1.3" fill="#233221"></circle><circle cx="120" cy="552" r="1.3" fill="#233221"></circle><circle cx="168" cy="552" r="1.3" fill="#233221"></circle><circle cx="216" cy="552" r="1.3" fill="#233221"></circle><circle cx="264" cy="552" r="1.3" fill="#233221"></circle><circle cx="312" cy="552" r="1.3" fill="#233221"></circle><circle cx="360" cy="552" r="1.3" fill="#233221"></circle><circle cx="408" cy="552" r="1.3" fill="#233221"></circle><circle cx="456" cy="552" r="1.3" fill="#233221"></circle><circle cx="504" cy="552" r="1.3" fill="#233221"></circle><circle cx="552" cy="552" r="1.3" fill="#233221"></circle><circle cx="600" cy="552" r="1.3" fill="#233221"></circle><circle cx="648" cy="552" r="1.3" fill="#233221"></circle><circle cx="696" cy="552" r="1.3" fill="#233221"></circle><circle cx="744" cy="552" r="1.3" fill="#233221"></circle><circle cx="792" cy="552" r="1.3" fill="#233221"></circle><circle cx="840" cy="552" r="1.3" fill="#233221"></circle><circle cx="888" cy="552" r="1.3" fill="#233221"></circle><circle cx="936" cy="552" r="1.3" fill="#233221"></circle><circle cx="24" cy="600" r="1.3" fill="#233221"></circle><circle cx="72" cy="600" r="1.3" fill="#233221"></circle><circle cx="120" cy="600" r="1.3" fill="#233221"></circle><circle cx="168" cy="600" r="1.3" fill="#233221"></circle><circle cx="216" cy="600" r="1.3" fill="#233221"></circle><circle cx="264" cy="600" r="1.3" fill="#233221"></circle><circle cx="312" cy="600" r="1.3" fill="#233221"></circle><circle cx="360" cy="600" r="1.3" fill="#233221"></circle><circle cx="408" cy="600" r="1.3" fill="#233221"></circle><circle cx="456" cy="600" r="1.3" fill="#233221"></circle><circle cx="504" cy="600" r="1.3" fill="#233221"></circle><circle cx="552" cy="600" r="1.3" fill="#233221"></circle><circle cx="600" cy="600" r="1.3" fill="#233221"></circle><circle cx="648" cy="600" r="1.3" fill="#233221"></circle><circle cx="696" cy="600" r="1.3" fill="#233221"></circle><circle cx="744" cy="600" r="1.3" fill="#233221"></circle><circle cx="792" cy="600" r="1.3" fill="#233221"></circle><circle cx="840" cy="600" r="1.3" fill="#233221"></circle><circle cx="888" cy="600" r="1.3" fill="#233221"></circle><circle cx="936" cy="600" r="1.3" fill="#233221"></circle>
<g stroke="#3a5a30" stroke-width="1.5" opacity="0.7"><line x1="250" y1="180" x2="470" y2="300"></line><line x1="470" y1="300" x2="700" y2="200"></line><line x1="470" y1="300" x2="430" y2="470"></line><line x1="700" y1="200" x2="760" y2="400"></line><line x1="250" y1="180" x2="220" y2="380"></line><line x1="220" y1="380" x2="430" y2="470"></line></g>
<g><rect x="600" y="150" width="200" height="130" rx="10" fill="#0e1a13" stroke="#8ABB2A" stroke-width="1.5"></rect><rect x="618" y="170" width="120" height="10" rx="5" fill="#2f4a2b"></rect><rect x="618" y="192" width="164" height="8" rx="4" fill="#243a22"></rect><rect x="618" y="210" width="140" height="8" rx="4" fill="#243a22"></rect><rect x="618" y="240" width="70" height="22" rx="6" fill="url(#ac)"></rect></g>
<g transform="translate(150,330)"><rect width="180" height="170" rx="10" fill="#0e1a13" stroke="#3a5a30" stroke-width="1.5"></rect><rect x="20" y="24" width="60" height="60" rx="8" fill="#243a22"></rect><rect x="96" y="24" width="60" height="60" rx="8" fill="#243a22"></rect><rect x="20" y="96" width="136" height="10" rx="5" fill="#2f4a2b"></rect><rect x="20" y="116" width="100" height="10" rx="5" fill="#243a22"></rect></g>
<circle cx="250" cy="180" r="9" fill="#0e1a13" stroke="#8ABB2A" stroke-width="2"></circle><circle cx="470" cy="300" r="15" fill="url(#ac)" stroke="#8ABB2A" stroke-width="2"></circle><circle cx="700" cy="200" r="9" fill="#0e1a13" stroke="#8ABB2A" stroke-width="2"></circle><circle cx="220" cy="380" r="9" fill="#0e1a13" stroke="#8ABB2A" stroke-width="2"></circle><circle cx="430" cy="470" r="9" fill="#0e1a13" stroke="#8ABB2A" stroke-width="2"></circle><circle cx="760" cy="400" r="9" fill="#0e1a13" stroke="#8ABB2A" stroke-width="2"></circle>
<text x="470" y="306" font-family="&#39;Manrope&#39;,sans-serif" font-size="15" font-weight="800" fill="#0d1712" text-anchor="middle">nx</text></svg>