<svg xmlns="http://www.w3.org/2000/svg" viewBox="0 0 1600 500" width="1600" height="500" preserveAspectRatio="xMidYMid slice"><line x1="1221.5" y1="273.2" x2="1199.1" y2="330.5" stroke="#8ABB2A" stroke-width="1" opacity="0.10"></line><line x1="1221.5" y1="273.2" x2="1210.3" y2="200.4" stroke="#8ABB2A" stroke-width="1" opacity="0.10"></line><line x1="1141.9" y1="419.6" x2="1159.8" y2="390.6" stroke="#8ABB2A" stroke-width="1" opacity="0.10"></line><line x1="1141.9" y1="419.6" x2="1133.8" y2="320.0" stroke="#8ABB2A" stroke-width="1" opacity="0.10"></line><line x1="1548.0" y1="205.5" x2="1542.4" y2="158.4" stroke="#8ABB2A" stroke-width="1" opacity="0.10"></line><line x1="1548.0" y1="205.5" x2="1447.7" y2="186.3" stroke="#8ABB2A" stroke-width="1" opacity="0.10"></line><line x1="897.9" y1="134.1" x2="910.6" y2="70.5" stroke="#8ABB2A" stroke-width="1" opacity="0.10"></line><line x1="897.9" y1="134.1" x2="945.0" y2="182.8" stroke="#8ABB2A" stroke-width="1" opacity="0.10"></line><line x1="1064.8" y1="301.8" x2="1072.1" y2="311.8" stroke="#8ABB2A" stroke-width="1" opacity="0.10"></line><line x1="1064.8" y1="301.8" x2="1044.7" y2="337.1" stroke="#8ABB2A" stroke-width="1" opacity="0.10"></line><line x1="1022.7" y1="334.1" x2="1044.7" y2="337.1" stroke="#8ABB2A" stroke-width="1" opacity="0.10"></line><line x1="1022.7" y1="334.1" x2="1064.8" y2="301.8" stroke="#8ABB2A" stroke-width="1" opacity="0.10"></line><line x1="171.3" y1="343.2" x2="237.8" y2="379.7" stroke="#8ABB2A" stroke-width="1" opacity="0.10"></line><line x1="171.3" y1="343.2" x2="171.9" y2="490.0" stroke="#8ABB2A" stroke-width="1" opacity="0.10"></line><line x1="323.4" y1="55.4" x2="288.1" y2="99.4" stroke="#8ABB2A" stroke-width="1" opacity="0.10"></line><line x1="323.4" y1="55.4" x2="291.1" y2="196.6" stroke="#8ABB2A" stroke-width="1" opacity="0.10"></line><line x1="910.6" y1="70.5" x2="897.9" y2="134.1" stroke="#8ABB2A" stroke-width="1" opacity="0.10"></line><line x1="910.6" y1="70.5" x2="945.0" y2="182.8" stroke="#8ABB2A" stroke-width="1" opacity="0.10"></line><line x1="458.4" y1="415.6" x2="546.7" y2="420.6" stroke="#8ABB2A" stroke-width="1" opacity="0.10"></line><line x1="458.4" y1="415.6" x2="237.8" y2="379.7" stroke="#8ABB2A" stroke-width="1" opacity="0.10"></line><line x1="1271.6" y1="113.9" x2="1239.5" y2="97.6" stroke="#8ABB2A" stroke-width="1" opacity="0.10"></line><line x1="1271.6" y1="113.9" x2="1210.3" y2="200.4" stroke="#8ABB2A" stroke-width="1" opacity="0.10"></line><line x1="1379.8" y1="259.8" x2="1447.7" y2="186.3" stroke="#8ABB2A" stroke-width="1" opacity="0.10"></line><line x1="1379.8" y1="259.8" x2="1221.5" y2="273.2" stroke="#8ABB2A" stroke-width="1" opacity="0.10"></line><line x1="700.0" y1="92.0" x2="734.8" y2="193.3" stroke="#8ABB2A" stroke-width="1" opacity="0.10"></line><line x1="700.0" y1="92.0" x2="558.7" y2="100.4" stroke="#8ABB2A" stroke-width="1" opacity="0.10"></line><line x1="1199.1" y1="330.5" x2="1221.5" y2="273.2" stroke="#8ABB2A" stroke-width="1" opacity="0.10"></line><line x1="1199.1" y1="330.5" x2="1133.8" y2="320.0" stroke="#8ABB2A" stroke-width="1" opacity="0.10"></line><line x1="1415.5" y1="462.4" x2="1379.8" y2="259.8" stroke="#8ABB2A" stroke-width="1" opacity="0.10"></line><line x1="1415.5" y1="462.4" x2="1199.1" y2="330.5" stroke="#8ABB2A" stroke-width="1" opacity="0.10"></line><line x1="1044.7" y1="337.1" x2="1022.7" y2="334.1" stroke="#8ABB2A" stroke-width="1" opacity="0.10"></line><line x1="1044.7" y1="337.1" x2="1072.1" y2="311.8" stroke="#8ABB2A" stroke-width="1" opacity="0.10"></line><line x1="1447.7" y1="186.3" x2="1542.4" y2="158.4" stroke="#8ABB2A" stroke-width="1" opacity="0.10"></line><line x1="1447.7" y1="186.3" x2="1379.8" y2="259.8" stroke="#8ABB2A" stroke-width="1" opacity="0.10"></line><line x1="279.2" y1="229.0" x2="291.1" y2="196.6" stroke="#8ABB2A" stroke-width="1" opacity="0.10"></line><line x1="279.2" y1="229.0" x2="288.1" y2="99.4" stroke="#8ABB2A" stroke-width="1" opacity="0.10"></line><line x1="1008.9" y1="484.4" x2="1141.9" y2="419.6" stroke="#8ABB2A" stroke-width="1" opacity="0.10"></line><line x1="1008.9" y1="484.4" x2="1022.7" y2="334.1" stroke="#8ABB2A" stroke-width="1" opacity="0.10"></line><line x1="1542.4" y1="158.4" x2="1548.0" y2="205.5" stroke="#8ABB2A" stroke-width="1" opacity="0.10"></line><line x1="1542.4" y1="158.4" x2="1447.7" y2="186.3" stroke="#8ABB2A" stroke-width="1" opacity="0.10"></line><line x1="288.1" y1="99.4" x2="323.4" y2="55.4" stroke="#8ABB2A" stroke-width="1" opacity="0.10"></line><line x1="288.1" y1="99.4" x2="291.1" y2="196.6" stroke="#8ABB2A" stroke-width="1" opacity="0.10"></line><line x1="291.1" y1="196.6" x2="279.2" y2="229.0" stroke="#8ABB2A" stroke-width="1" opacity="0.10"></line><line x1="291.1" y1="196.6" x2="288.1" y2="99.4" stroke="#8ABB2A" stroke-width="1" opacity="0.10"></line><line x1="27.9" y1="133.1" x2="23.9" y2="49.9" stroke="#8ABB2A" stroke-width="1" opacity="0.10"></line><line x1="27.9" y1="133.1" x2="127.7" y2="108.3" stroke="#8ABB2A" stroke-width="1" opacity="0.10"></line><line x1="237.8" y1="379.7" x2="171.3" y2="343.2" stroke="#8ABB2A" stroke-width="1" opacity="0.10"></line><line x1="237.8" y1="379.7" x2="171.9" y2="490.0" stroke="#8ABB2A" stroke-width="1" opacity="0.10"></line><line x1="1239.5" y1="97.6" x2="1271.6" y2="113.9" stroke="#8ABB2A" stroke-width="1" opacity="0.10"></line><line x1="1239.5" y1="97.6" x2="1210.3" y2="200.4" stroke="#8ABB2A" stroke-width="1" opacity="0.10"></line><line x1="830.4" y1="290.4" x2="909.3" y2="252.2" stroke="#8ABB2A" stroke-width="1" opacity="0.10"></line><line x1="830.4" y1="290.4" x2="734.8" y2="193.3" stroke="#8ABB2A" stroke-width="1" opacity="0.10"></line><line x1="772.7" y1="485.3" x2="830.4" y2="290.4" stroke="#8ABB2A" stroke-width="1" opacity="0.10"></line><line x1="772.7" y1="485.3" x2="546.7" y2="420.6" stroke="#8ABB2A" stroke-width="1" opacity="0.10"></line><line x1="23.9" y1="49.9" x2="27.9" y2="133.1" stroke="#8ABB2A" stroke-width="1" opacity="0.10"></line><line x1="23.9" y1="49.9" x2="127.7" y2="108.3" stroke="#8ABB2A" stroke-width="1" opacity="0.10"></line><line x1="1159.8" y1="390.6" x2="1141.9" y2="419.6" stroke="#8ABB2A" stroke-width="1" opacity="0.10"></line><line x1="1159.8" y1="390.6" x2="1199.1" y2="330.5" stroke="#8ABB2A" stroke-width="1" opacity="0.10"></line><line x1="909.3" y1="252.2" x2="945.0" y2="182.8" stroke="#8ABB2A" stroke-width="1" opacity="0.10"></line><line x1="909.3" y1="252.2" x2="830.4" y2="290.4" stroke="#8ABB2A" stroke-width="1" opacity="0.10"></line><line x1="1130.9" y1="249.2" x2="1133.8" y2="320.0" stroke="#8ABB2A" stroke-width="1" opacity="0.10"></line><line x1="1130.9" y1="249.2" x2="1064.8" y2="301.8" stroke="#8ABB2A" stroke-width="1" opacity="0.10"></line><line x1="1133.8" y1="320.0" x2="1072.1" y2="311.8" stroke="#8ABB2A" stroke-width="1" opacity="0.10"></line><line x1="1133.8" y1="320.0" x2="1199.1" y2="330.5" stroke="#8ABB2A" stroke-width="1" opacity="0.10"></line><line x1="1072.1" y1="311.8" x2="1064.8" y2="301.8" stroke="#8ABB2A" stroke-width="1" opacity="0.10"></line><line x1="1072.1" y1="311.8" x2="1044.7" y2="337.1" stroke="#8ABB2A" stroke-width="1" opacity="0.10"></line><line x1="171.9" y1="490.0" x2="237.8" y2="379.7" stroke="#8ABB2A" stroke-width="1" opacity="0.10"></line><line x1="171.9" y1="490.0" x2="171.3" y2="343.2" stroke="#8ABB2A" stroke-width="1" opacity="0.10"></line><line x1="546.7" y1="420.6" x2="458.4" y2="415.6" stroke="#8ABB2A" stroke-width="1" opacity="0.10"></line><line x1="546.7" y1="420.6" x2="772.7" y2="485.3" stroke="#8ABB2A" stroke-width="1" opacity="0.10"></line><line x1="558.7" y1="100.4" x2="700.0" y2="92.0" stroke="#8ABB2A" stroke-width="1" opacity="0.10"></line><line x1="558.7" y1="100.4" x2="734.8" y2="193.3" stroke="#8ABB2A" stroke-width="1" opacity="0.10"></line><line x1="1210.3" y1="200.4" x2="1221.5" y2="273.2" stroke="#8ABB2A" stroke-width="1" opacity="0.10"></line><line x1="1210.3" y1="200.4" x2="1130.9" y2="249.2" stroke="#8ABB2A" stroke-width="1" opacity="0.10"></line><line x1="127.7" y1="108.3" x2="27.9" y2="133.1" stroke="#8ABB2A" stroke-width="1" opacity="0.10"></line><line x1="127.7" y1="108.3" x2="23.9" y2="49.9" stroke="#8ABB2A" stroke-width="1" opacity="0.10"></line><line x1="945.0" y1="182.8" x2="897.9" y2="134.1" stroke="#8ABB2A" stroke-width="1" opacity="0.10"></line><line x1="945.0" y1="182.8" x2="909.3" y2="252.2" stroke="#8ABB2A" stroke-width="1" opacity="0.10"></line><line x1="734.8" y1="193.3" x2="700.0" y2="92.0" stroke="#8ABB2A" stroke-width="1" opacity="0.10"></line><line x1="734.8" y1="193.3" x2="830.4" y2="290.4" stroke="#8ABB2A" stroke-width="1" opacity="0.10"></line><circle cx="1221.5" cy="273.2" r="3.7" fill="#8ABB2A" opacity="0.22"></circle><circle cx="1141.9" cy="419.6" r="1.6" fill="#8ABB2A" opacity="0.22"></circle><circle cx="1548.0" cy="205.5" r="2.0" fill="#8ABB2A" opacity="0.22"></circle><circle cx="897.9" cy="134.1" r="1.9" fill="#8ABB2A" opacity="0.22"></circle><circle cx="1064.8" cy="301.8" r="3.3" fill="#8ABB2A" opacity="0.22"></circle><circle cx="1022.7" cy="334.1" r="3.4" fill="#8ABB2A" opacity="0.22"></circle><circle cx="171.3" cy="343.2" r="2.6" fill="#8ABB2A" opacity="0.22"></circle><circle cx="323.4" cy="55.4" r="3.1" fill="#8ABB2A" opacity="0.22"></circle><circle cx="910.6" cy="70.5" r="2.7" fill="#8ABB2A" opacity="0.22"></circle><circle cx="458.4" cy="415.6" r="2.8" fill="#8ABB2A" opacity="0.22"></circle><circle cx="1271.6" cy="113.9" r="3.6" fill="#8ABB2A" opacity="0.22"></circle><circle cx="1379.8" cy="259.8" r="3.3" fill="#8ABB2A" opacity="0.22"></circle><circle cx="700.0" cy="92.0" r="3.0" fill="#8ABB2A" opacity="0.22"></circle><circle cx="1199.1" cy="330.5" r="2.1" fill="#8ABB2A" opacity="0.22"></circle><circle cx="1415.5" cy="462.4" r="2.0" fill="#8ABB2A" opacity="0.22"></circle><circle cx="1044.7" cy="337.1" r="2.4" fill="#8ABB2A" opacity="0.22"></circle><circle cx="1447.7" cy="186.3" r="2.9" fill="#8ABB2A" opacity="0.22"></circle><circle cx="279.2" cy="229.0" r="1.6" fill="#8ABB2A" opacity="0.22"></circle><circle cx="1008.9" cy="484.4" r="2.2" fill="#8ABB2A" opacity="0.22"></circle><circle cx="1542.4" cy="158.4" r="3.2" fill="#8ABB2A" opacity="0.22"></circle><circle cx="288.1" cy="99.4" r="3.0" fill="#8ABB2A" opacity="0.22"></circle><circle cx="291.1" cy="196.6" r="2.8" fill="#8ABB2A" opacity="0.22"></circle><circle cx="27.9" cy="133.1" r="2.2" fill="#8ABB2A" opacity="0.22"></circle><circle cx="237.8" cy="379.7" r="2.4" fill="#8ABB2A" opacity="0.22"></circle><circle cx="1239.5" cy="97.6" r="1.9" fill="#8ABB2A" opacity="0.22"></circle><circle cx="830.4" cy="290.4" r="3.7" fill="#8ABB2A" opacity="0.22"></circle><circle cx="772.7" cy="485.3" r="2.4" fill="#8ABB2A" opacity="0.22"></circle><circle cx="23.9" cy="49.9" r="1.8" fill="#8ABB2A" opacity="0.22"></circle><circle cx="1159.8" cy="390.6" r="2.5" fill="#8ABB2A" opacity="0.22"></circle><circle cx="909.3" cy="252.2" r="3.8" fill="#8ABB2A" opacity="0.22"></circle><circle cx="1130.9" cy="249.2" r="3.8" fill="#8ABB2A" opacity="0.22"></circle><circle cx="1133.8" cy="320.0" r="3.7" fill="#8ABB2A" opacity="0.22"></circle><circle cx="1072.1" cy="311.8" r="1.6" fill="#8ABB2A" opacity="0.22"></circle><circle cx="171.9" cy="490.0" r="2.3" fill="#8ABB2A" opacity="0.22"></circle><circle cx="546.7" cy="420.6" r="4.0" fill="#8ABB2A" opacity="0.22"></circle><circle cx="558.7" cy="100.4" r="3.4" fill="#8ABB2A" opacity="0.22"></circle><circle cx="1210.3" cy="200.4" r="1.6" fill="#8ABB2A" opacity="0.22"></circle><circle cx="127.7" cy="108.3" r="1.7" fill="#8ABB2A" opacity="0.22"></circle><circle cx="945.0" cy="182.8" r="4.0" fill="#8ABB2A" opacity="0.22"></circle><circle cx="734.8" cy="193.3" r="2.8" fill="#8ABB2A" opacity="0.22"></circle></svg>