<svg xmlns="http://www.w3.org/2000/svg" viewBox="138 108 50 50" width="300" height="300"><defs><linearGradient id="linear-gradient" y1="0.5" x2="1" y2="0.5"><stop offset="0" stop-color="#8abb2a"></stop><stop offset="1" stop-color="#248332"></stop></linearGradient></defs><path id="Path_1" fill="url(#linear-gradient)" data-name="Path 1" d="M162.919,109.988a22.4,22.4,0,1,0,22.4,22.4A22.43,22.43,0,0,0,162.919,109.988Zm9.242,37.563-.606-.606,0-.006c-1.145-1.152-2.29-2.3-3.435-3.45l-.051-.051a.436.436,0,0,0-.058-.051c-.912-.9-1.773-1.838-2.677-2.742-1.554-1.539-3.144-3.041-4.7-4.58-.16-.168-.328-.328-.488-.5a4.122,4.122,0,0,1-1.437-3.3,5.156,5.156,0,0,0-4.3-5.339,5.366,5.366,0,0,0-6.032,3.6,5.062,5.062,0,0,0,2.691,6.382,3.468,3.468,0,0,0,2.013.635c.795-.044,1.313-.285,2.093.109a6.825,6.825,0,0,1,1.6,1.291q3.906,3.9,7.819,7.783a.591.591,0,0,0,.087.1q1.372,1.372,2.737,2.743a17.753,17.753,0,0,1-14.211-32.037l2.9,2.9h0l.94.944a1.244,1.244,0,0,0,.175.153c1.145,1.058,2.181,2.224,3.29,3.326,1.561,1.539,3.151,3.049,4.7,4.588.167.16.328.328.5.488a4.124,4.124,0,0,1,1.437,3.3,5.144,5.144,0,0,0,4.3,5.339,5.357,5.357,0,0,0,6.024-3.6,5.068,5.068,0,0,0-2.684-6.382,3.474,3.474,0,0,0-2.02-.635c-.788.044-1.306.292-2.093-.109a6.609,6.609,0,0,1-1.6-1.291q-5.426-5.394-10.846-10.795c-.127-.127-.258-.255-.385-.382a17.755,17.755,0,0,1,14.321,32.174Zm-16.6-15.643c0,.014.007.029.007.044s.007.029.007.043.007.037.007.058v.022c.007.007.007.007.007.015v.051a.627.627,0,0,1,.014.11,3.265,3.265,0,0,1-.314,1.036,2.1,2.1,0,0,1-.211.321c-.044.051-.088.095-.132.146a2.088,2.088,0,0,1-1.524.562,1.984,1.984,0,0,1-2.1-2.239,2.1,2.1,0,0,1,2.2-2.035,2.151,2.151,0,0,1,1.9,1.342c.022.058.044.132.065.2s.029.095.044.146a.042.042,0,0,0,.007.029.046.046,0,0,0,.007.029c0,.029.007.051.007.073v.007A.1.1,0,0,1,155.563,131.908Zm14.719,1.692a.113.113,0,0,1-.007-.051.089.089,0,0,1-.007-.043.124.124,0,0,1-.007-.051.045.045,0,0,1-.007-.029v-.015c0-.014-.007-.036-.007-.051a.574.574,0,0,1-.007-.11,2.924,2.924,0,0,1,.314-1.036,1.64,1.64,0,0,1,.211-.321,1.129,1.129,0,0,1,.124-.139,2.087,2.087,0,0,1,1.524-.569,1.988,1.988,0,0,1,2.108,2.246,2.122,2.122,0,0,1-4.092.693,1.566,1.566,0,0,1-.073-.2.847.847,0,0,1-.037-.146.028.028,0,0,1-.007-.022.321.321,0,0,0-.007-.036c-.007-.022-.007-.051-.014-.073v-.007C170.289,133.629,170.282,133.607,170.282,133.6Z" transform="translate(-140.514 -109.988)" fill="url(#linear-gradient)"></path></svg>