<svg xmlns="http://www.w3.org/2000/svg" viewBox="0 0 980 640" width="980" height="640"><circle cx="40" cy="40" r="1.3" fill="#dfe6d8"></circle><circle cx="40" cy="80" r="1.3" fill="#dfe6d8"></circle><circle cx="40" cy="120" r="1.3" fill="#dfe6d8"></circle><circle cx="40" cy="160" r="1.3" fill="#dfe6d8"></circle><circle cx="40" cy="200" r="1.3" fill="#dfe6d8"></circle><circle cx="40" cy="240" r="1.3" fill="#dfe6d8"></circle><circle cx="40" cy="280" r="1.3" fill="#dfe6d8"></circle><circle cx="40" cy="320" r="1.3" fill="#dfe6d8"></circle><circle cx="40" cy="360" r="1.3" fill="#dfe6d8"></circle><circle cx="40" cy="400" r="1.3" fill="#dfe6d8"></circle><circle cx="40" cy="440" r="1.3" fill="#dfe6d8"></circle><circle cx="40" cy="480" r="1.3" fill="#dfe6d8"></circle><circle cx="40" cy="520" r="1.3" fill="#dfe6d8"></circle><circle cx="40" cy="560" r="1.3" fill="#dfe6d8"></circle><circle cx="40" cy="600" r="1.3" fill="#dfe6d8"></circle><circle cx="80" cy="40" r="1.3" fill="#dfe6d8"></circle><circle cx="80" cy="80" r="1.3" fill="#dfe6d8"></circle><circle cx="80" cy="120" r="1.3" fill="#dfe6d8"></circle><circle cx="80" cy="160" r="1.3" fill="#dfe6d8"></circle><circle cx="80" cy="200" r="1.3" fill="#dfe6d8"></circle><circle cx="80" cy="240" r="1.3" fill="#dfe6d8"></circle><circle cx="80" cy="280" r="1.3" fill="#dfe6d8"></circle><circle cx="80" cy="320" r="1.3" fill="#dfe6d8"></circle><circle cx="80" cy="360" r="1.3" fill="#dfe6d8"></circle><circle cx="80" cy="400" r="1.3" fill="#dfe6d8"></circle><circle cx="80" cy="440" r="1.3" fill="#dfe6d8"></circle><circle cx="80" cy="480" r="1.3" fill="#dfe6d8"></circle><circle cx="80" cy="520" r="1.3" fill="#dfe6d8"></circle><circle cx="80" cy="560" r="1.3" fill="#dfe6d8"></circle><circle cx="80" cy="600" r="1.3" fill="#dfe6d8"></circle><circle cx="120" cy="40" r="1.3" fill="#dfe6d8"></circle><circle cx="120" cy="80" r="1.3" fill="#dfe6d8"></circle><circle cx="120" cy="120" r="1.3" fill="#dfe6d8"></circle><circle cx="120" cy="160" r="1.3" fill="#dfe6d8"></circle><circle cx="120" cy="200" r="1.3" fill="#dfe6d8"></circle><circle cx="120" cy="240" r="1.3" fill="#dfe6d8"></circle><circle cx="120" cy="280" r="1.3" fill="#dfe6d8"></circle><circle cx="120" cy="320" r="1.3" fill="#dfe6d8"></circle><circle cx="120" cy="360" r="1.3" fill="#dfe6d8"></circle><circle cx="120" cy="400" r="1.3" fill="#dfe6d8"></circle><circle cx="120" cy="440" r="1.3" fill="#dfe6d8"></circle><circle cx="120" cy="480" r="1.3" fill="#dfe6d8"></circle><circle cx="120" cy="520" r="1.3" fill="#dfe6d8"></circle><circle cx="120" cy="560" r="1.3" fill="#dfe6d8"></circle><circle cx="120" cy="600" r="1.3" fill="#dfe6d8"></circle><circle cx="160" cy="40" r="1.3" fill="#dfe6d8"></circle><circle cx="160" cy="80" r="1.3" fill="#dfe6d8"></circle><circle cx="160" cy="120" r="1.3" fill="#dfe6d8"></circle><circle cx="160" cy="160" r="1.3" fill="#dfe6d8"></circle><circle cx="160" cy="200" r="1.3" fill="#dfe6d8"></circle><circle cx="160" cy="240" r="1.3" fill="#dfe6d8"></circle><circle cx="160" cy="280" r="1.3" fill="#dfe6d8"></circle><circle cx="160" cy="320" r="1.3" fill="#dfe6d8"></circle><circle cx="160" cy="360" r="1.3" fill="#dfe6d8"></circle><circle cx="160" cy="400" r="1.3" fill="#dfe6d8"></circle><circle cx="160" cy="440" r="1.3" fill="#dfe6d8"></circle><circle cx="160" cy="480" r="1.3" fill="#dfe6d8"></circle><circle cx="160" cy="520" r="1.3" fill="#dfe6d8"></circle><circle cx="160" cy="560" r="1.3" fill="#dfe6d8"></circle><circle cx="160" cy="600" r="1.3" fill="#dfe6d8"></circle><circle cx="200" cy="40" r="1.3" fill="#dfe6d8"></circle><circle cx="200" cy="80" r="1.3" fill="#dfe6d8"></circle><circle cx="200" cy="120" r="1.3" fill="#dfe6d8"></circle><circle cx="200" cy="160" r="1.3" fill="#dfe6d8"></circle><circle cx="200" cy="200" r="1.3" fill="#dfe6d8"></circle><circle cx="200" cy="240" r="1.3" fill="#dfe6d8"></circle><circle cx="200" cy="280" r="1.3" fill="#dfe6d8"></circle><circle cx="200" cy="320" r="1.3" fill="#dfe6d8"></circle><circle cx="200" cy="360" r="1.3" fill="#dfe6d8"></circle><circle cx="200" cy="400" r="1.3" fill="#dfe6d8"></circle><circle cx="200" cy="440" r="1.3" fill="#dfe6d8"></circle><circle cx="200" cy="480" r="1.3" fill="#dfe6d8"></circle><circle cx="200" cy="520" r="1.3" fill="#dfe6d8"></circle><circle cx="200" cy="560" r="1.3" fill="#dfe6d8"></circle><circle cx="200" cy="600" r="1.3" fill="#dfe6d8"></circle><circle cx="240" cy="40" r="1.3" fill="#dfe6d8"></circle><circle cx="240" cy="80" r="1.3" fill="#dfe6d8"></circle><circle cx="240" cy="120" r="1.3" fill="#dfe6d8"></circle><circle cx="240" cy="160" r="1.3" fill="#dfe6d8"></circle><circle cx="240" cy="200" r="1.3" fill="#dfe6d8"></circle><circle cx="240" cy="240" r="1.3" fill="#dfe6d8"></circle><circle cx="240" cy="280" r="1.3" fill="#dfe6d8"></circle><circle cx="240" cy="320" r="1.3" fill="#dfe6d8"></circle><circle cx="240" cy="360" r="1.3" fill="#dfe6d8"></circle><circle cx="240" cy="400" r="1.3" fill="#dfe6d8"></circle><circle cx="240" cy="440" r="1.3" fill="#dfe6d8"></circle><circle cx="240" cy="480" r="1.3" fill="#dfe6d8"></circle><circle cx="240" cy="520" r="1.3" fill="#dfe6d8"></circle><circle cx="240" cy="560" r="1.3" fill="#dfe6d8"></circle><circle cx="240" cy="600" r="1.3" fill="#dfe6d8"></circle><circle cx="280" cy="40" r="1.3" fill="#dfe6d8"></circle><circle cx="280" cy="80" r="1.3" fill="#dfe6d8"></circle><circle cx="280" cy="120" r="1.3" fill="#dfe6d8"></circle><circle cx="280" cy="160" r="1.3" fill="#dfe6d8"></circle><circle cx="280" cy="200" r="1.3" fill="#dfe6d8"></circle><circle cx="280" cy="240" r="1.3" fill="#dfe6d8"></circle><circle cx="280" cy="280" r="1.3" fill="#dfe6d8"></circle><circle cx="280" cy="320" r="1.3" fill="#dfe6d8"></circle><circle cx="280" cy="360" r="1.3" fill="#dfe6d8"></circle><circle cx="280" cy="400" r="1.3" fill="#dfe6d8"></circle><circle cx="280" cy="440" r="1.3" fill="#dfe6d8"></circle><circle cx="280" cy="480" r="1.3" fill="#dfe6d8"></circle><circle cx="280" cy="520" r="1.3" fill="#dfe6d8"></circle><circle cx="280" cy="560" r="1.3" fill="#dfe6d8"></circle><circle cx="280" cy="600" r="1.3" fill="#dfe6d8"></circle><circle cx="320" cy="40" r="1.3" fill="#dfe6d8"></circle><circle cx="320" cy="80" r="1.3" fill="#dfe6d8"></circle><circle cx="320" cy="120" r="1.3" fill="#dfe6d8"></circle><circle cx="320" cy="160" r="1.3" fill="#dfe6d8"></circle><circle cx="320" cy="200" r="1.3" fill="#dfe6d8"></circle><circle cx="320" cy="240" r="1.3" fill="#dfe6d8"></circle><circle cx="320" cy="280" r="1.3" fill="#dfe6d8"></circle><circle cx="320" cy="320" r="1.3" fill="#dfe6d8"></circle><circle cx="320" cy="360" r="1.3" fill="#dfe6d8"></circle><circle cx="320" cy="400" r="1.3" fill="#dfe6d8"></circle><circle cx="320" cy="440" r="1.3" fill="#dfe6d8"></circle><circle cx="320" cy="480" r="1.3" fill="#dfe6d8"></circle><circle cx="320" cy="520" r="1.3" fill="#dfe6d8"></circle><circle cx="320" cy="560" r="1.3" fill="#dfe6d8"></circle><circle cx="320" cy="600" r="1.3" fill="#dfe6d8"></circle><circle cx="360" cy="40" r="1.3" fill="#dfe6d8"></circle><circle cx="360" cy="80" r="1.3" fill="#dfe6d8"></circle><circle cx="360" cy="120" r="1.3" fill="#dfe6d8"></circle><circle cx="360" cy="160" r="1.3" fill="#dfe6d8"></circle><circle cx="360" cy="200" r="1.3" fill="#dfe6d8"></circle><circle cx="360" cy="240" r="1.3" fill="#dfe6d8"></circle><circle cx="360" cy="280" r="1.3" fill="#dfe6d8"></circle><circle cx="360" cy="320" r="1.3" fill="#dfe6d8"></circle><circle cx="360" cy="360" r="1.3" fill="#dfe6d8"></circle><circle cx="360" cy="400" r="1.3" fill="#dfe6d8"></circle><circle cx="360" cy="440" r="1.3" fill="#dfe6d8"></circle><circle cx="360" cy="480" r="1.3" fill="#dfe6d8"></circle><circle cx="360" cy="520" r="1.3" fill="#dfe6d8"></circle><circle cx="360" cy="560" r="1.3" fill="#dfe6d8"></circle><circle cx="360" cy="600" r="1.3" fill="#dfe6d8"></circle><circle cx="400" cy="40" r="1.3" fill="#dfe6d8"></circle><circle cx="400" cy="80" r="1.3" fill="#dfe6d8"></circle><circle cx="400" cy="120" r="1.3" fill="#dfe6d8"></circle><circle cx="400" cy="160" r="1.3" fill="#dfe6d8"></circle><circle cx="400" cy="200" r="1.3" fill="#dfe6d8"></circle><circle cx="400" cy="240" r="1.3" fill="#dfe6d8"></circle><circle cx="400" cy="280" r="1.3" fill="#dfe6d8"></circle><circle cx="400" cy="320" r="1.3" fill="#dfe6d8"></circle><circle cx="400" cy="360" r="1.3" fill="#dfe6d8"></circle><circle cx="400" cy="400" r="1.3" fill="#dfe6d8"></circle><circle cx="400" cy="440" r="1.3" fill="#dfe6d8"></circle><circle cx="400" cy="480" r="1.3" fill="#dfe6d8"></circle><circle cx="400" cy="520" r="1.3" fill="#dfe6d8"></circle><circle cx="400" cy="560" r="1.3" fill="#dfe6d8"></circle><circle cx="400" cy="600" r="1.3" fill="#dfe6d8"></circle><circle cx="440" cy="40" r="1.3" fill="#dfe6d8"></circle><circle cx="440" cy="80" r="1.3" fill="#dfe6d8"></circle><circle cx="440" cy="120" r="1.3" fill="#dfe6d8"></circle><circle cx="440" cy="160" r="1.3" fill="#dfe6d8"></circle><circle cx="440" cy="200" r="1.3" fill="#dfe6d8"></circle><circle cx="440" cy="240" r="1.3" fill="#dfe6d8"></circle><circle cx="440" cy="280" r="1.3" fill="#dfe6d8"></circle><circle cx="440" cy="320" r="1.3" fill="#dfe6d8"></circle><circle cx="440" cy="360" r="1.3" fill="#dfe6d8"></circle><circle cx="440" cy="400" r="1.3" fill="#dfe6d8"></circle><circle cx="440" cy="440" r="1.3" fill="#dfe6d8"></circle><circle cx="440" cy="480" r="1.3" fill="#dfe6d8"></circle><circle cx="440" cy="520" r="1.3" fill="#dfe6d8"></circle><circle cx="440" cy="560" r="1.3" fill="#dfe6d8"></circle><circle cx="440" cy="600" r="1.3" fill="#dfe6d8"></circle><circle cx="480" cy="40" r="1.3" fill="#dfe6d8"></circle><circle cx="480" cy="80" r="1.3" fill="#dfe6d8"></circle><circle cx="480" cy="120" r="1.3" fill="#dfe6d8"></circle><circle cx="480" cy="160" r="1.3" fill="#dfe6d8"></circle><circle cx="480" cy="200" r="1.3" fill="#dfe6d8"></circle><circle cx="480" cy="240" r="1.3" fill="#dfe6d8"></circle><circle cx="480" cy="280" r="1.3" fill="#dfe6d8"></circle><circle cx="480" cy="320" r="1.3" fill="#dfe6d8"></circle><circle cx="480" cy="360" r="1.3" fill="#dfe6d8"></circle><circle cx="480" cy="400" r="1.3" fill="#dfe6d8"></circle><circle cx="480" cy="440" r="1.3" fill="#dfe6d8"></circle><circle cx="480" cy="480" r="1.3" fill="#dfe6d8"></circle><circle cx="480" cy="520" r="1.3" fill="#dfe6d8"></circle><circle cx="480" cy="560" r="1.3" fill="#dfe6d8"></circle><circle cx="480" cy="600" r="1.3" fill="#dfe6d8"></circle><circle cx="520" cy="40" r="1.3" fill="#dfe6d8"></circle><circle cx="520" cy="80" r="1.3" fill="#dfe6d8"></circle><circle cx="520" cy="120" r="1.3" fill="#dfe6d8"></circle><circle cx="520" cy="160" r="1.3" fill="#dfe6d8"></circle><circle cx="520" cy="200" r="1.3" fill="#dfe6d8"></circle><circle cx="520" cy="240" r="1.3" fill="#dfe6d8"></circle><circle cx="520" cy="280" r="1.3" fill="#dfe6d8"></circle><circle cx="520" cy="320" r="1.3" fill="#dfe6d8"></circle><circle cx="520" cy="360" r="1.3" fill="#dfe6d8"></circle><circle cx="520" cy="400" r="1.3" fill="#dfe6d8"></circle><circle cx="520" cy="440" r="1.3" fill="#dfe6d8"></circle><circle cx="520" cy="480" r="1.3" fill="#dfe6d8"></circle><circle cx="520" cy="520" r="1.3" fill="#dfe6d8"></circle><circle cx="520" cy="560" r="1.3" fill="#dfe6d8"></circle><circle cx="520" cy="600" r="1.3" fill="#dfe6d8"></circle><circle cx="560" cy="40" r="1.3" fill="#dfe6d8"></circle><circle cx="560" cy="80" r="1.3" fill="#dfe6d8"></circle><circle cx="560" cy="120" r="1.3" fill="#dfe6d8"></circle><circle cx="560" cy="160" r="1.3" fill="#dfe6d8"></circle><circle cx="560" cy="200" r="1.3" fill="#dfe6d8"></circle><circle cx="560" cy="240" r="1.3" fill="#dfe6d8"></circle><circle cx="560" cy="280" r="1.3" fill="#dfe6d8"></circle><circle cx="560" cy="320" r="1.3" fill="#dfe6d8"></circle><circle cx="560" cy="360" r="1.3" fill="#dfe6d8"></circle><circle cx="560" cy="400" r="1.3" fill="#dfe6d8"></circle><circle cx="560" cy="440" r="1.3" fill="#dfe6d8"></circle><circle cx="560" cy="480" r="1.3" fill="#dfe6d8"></circle><circle cx="560" cy="520" r="1.3" fill="#dfe6d8"></circle><circle cx="560" cy="560" r="1.3" fill="#dfe6d8"></circle><circle cx="560" cy="600" r="1.3" fill="#dfe6d8"></circle><circle cx="600" cy="40" r="1.3" fill="#dfe6d8"></circle><circle cx="600" cy="80" r="1.3" fill="#dfe6d8"></circle><circle cx="600" cy="120" r="1.3" fill="#dfe6d8"></circle><circle cx="600" cy="160" r="1.3" fill="#dfe6d8"></circle><circle cx="600" cy="200" r="1.3" fill="#dfe6d8"></circle><circle cx="600" cy="240" r="1.3" fill="#dfe6d8"></circle><circle cx="600" cy="280" r="1.3" fill="#dfe6d8"></circle><circle cx="600" cy="320" r="1.3" fill="#dfe6d8"></circle><circle cx="600" cy="360" r="1.3" fill="#dfe6d8"></circle><circle cx="600" cy="400" r="1.3" fill="#dfe6d8"></circle><circle cx="600" cy="440" r="1.3" fill="#dfe6d8"></circle><circle cx="600" cy="480" r="1.3" fill="#dfe6d8"></circle><circle cx="600" cy="520" r="1.3" fill="#dfe6d8"></circle><circle cx="600" cy="560" r="1.3" fill="#dfe6d8"></circle><circle cx="600" cy="600" r="1.3" fill="#dfe6d8"></circle><circle cx="640" cy="40" r="1.3" fill="#dfe6d8"></circle><circle cx="640" cy="80" r="1.3" fill="#dfe6d8"></circle><circle cx="640" cy="120" r="1.3" fill="#dfe6d8"></circle><circle cx="640" cy="160" r="1.3" fill="#dfe6d8"></circle><circle cx="640" cy="200" r="1.3" fill="#dfe6d8"></circle><circle cx="640" cy="240" r="1.3" fill="#dfe6d8"></circle><circle cx="640" cy="280" r="1.3" fill="#dfe6d8"></circle><circle cx="640" cy="320" r="1.3" fill="#dfe6d8"></circle><circle cx="640" cy="360" r="1.3" fill="#dfe6d8"></circle><circle cx="640" cy="400" r="1.3" fill="#dfe6d8"></circle><circle cx="640" cy="440" r="1.3" fill="#dfe6d8"></circle><circle cx="640" cy="480" r="1.3" fill="#dfe6d8"></circle><circle cx="640" cy="520" r="1.3" fill="#dfe6d8"></circle><circle cx="640" cy="560" r="1.3" fill="#dfe6d8"></circle><circle cx="640" cy="600" r="1.3" fill="#dfe6d8"></circle><circle cx="680" cy="40" r="1.3" fill="#dfe6d8"></circle><circle cx="680" cy="80" r="1.3" fill="#dfe6d8"></circle><circle cx="680" cy="120" r="1.3" fill="#dfe6d8"></circle><circle cx="680" cy="160" r="1.3" fill="#dfe6d8"></circle><circle cx="680" cy="200" r="1.3" fill="#dfe6d8"></circle><circle cx="680" cy="240" r="1.3" fill="#dfe6d8"></circle><circle cx="680" cy="280" r="1.3" fill="#dfe6d8"></circle><circle cx="680" cy="320" r="1.3" fill="#dfe6d8"></circle><circle cx="680" cy="360" r="1.3" fill="#dfe6d8"></circle><circle cx="680" cy="400" r="1.3" fill="#dfe6d8"></circle><circle cx="680" cy="440" r="1.3" fill="#dfe6d8"></circle><circle cx="680" cy="480" r="1.3" fill="#dfe6d8"></circle><circle cx="680" cy="520" r="1.3" fill="#dfe6d8"></circle><circle cx="680" cy="560" r="1.3" fill="#dfe6d8"></circle><circle cx="680" cy="600" r="1.3" fill="#dfe6d8"></circle><circle cx="720" cy="40" r="1.3" fill="#dfe6d8"></circle><circle cx="720" cy="80" r="1.3" fill="#dfe6d8"></circle><circle cx="720" cy="120" r="1.3" fill="#dfe6d8"></circle><circle cx="720" cy="160" r="1.3" fill="#dfe6d8"></circle><circle cx="720" cy="200" r="1.3" fill="#dfe6d8"></circle><circle cx="720" cy="240" r="1.3" fill="#dfe6d8"></circle><circle cx="720" cy="280" r="1.3" fill="#dfe6d8"></circle><circle cx="720" cy="320" r="1.3" fill="#dfe6d8"></circle><circle cx="720" cy="360" r="1.3" fill="#dfe6d8"></circle><circle cx="720" cy="400" r="1.3" fill="#dfe6d8"></circle><circle cx="720" cy="440" r="1.3" fill="#dfe6d8"></circle><circle cx="720" cy="480" r="1.3" fill="#dfe6d8"></circle><circle cx="720" cy="520" r="1.3" fill="#dfe6d8"></circle><circle cx="720" cy="560" r="1.3" fill="#dfe6d8"></circle><circle cx="720" cy="600" r="1.3" fill="#dfe6d8"></circle><circle cx="760" cy="40" r="1.3" fill="#dfe6d8"></circle><circle cx="760" cy="80" r="1.3" fill="#dfe6d8"></circle><circle cx="760" cy="120" r="1.3" fill="#dfe6d8"></circle><circle cx="760" cy="160" r="1.3" fill="#dfe6d8"></circle><circle cx="760" cy="200" r="1.3" fill="#dfe6d8"></circle><circle cx="760" cy="240" r="1.3" fill="#dfe6d8"></circle><circle cx="760" cy="280" r="1.3" fill="#dfe6d8"></circle><circle cx="760" cy="320" r="1.3" fill="#dfe6d8"></circle><circle cx="760" cy="360" r="1.3" fill="#dfe6d8"></circle><circle cx="760" cy="400" r="1.3" fill="#dfe6d8"></circle><circle cx="760" cy="440" r="1.3" fill="#dfe6d8"></circle><circle cx="760" cy="480" r="1.3" fill="#dfe6d8"></circle><circle cx="760" cy="520" r="1.3" fill="#dfe6d8"></circle><circle cx="760" cy="560" r="1.3" fill="#dfe6d8"></circle><circle cx="760" cy="600" r="1.3" fill="#dfe6d8"></circle><circle cx="800" cy="40" r="1.3" fill="#dfe6d8"></circle><circle cx="800" cy="80" r="1.3" fill="#dfe6d8"></circle><circle cx="800" cy="120" r="1.3" fill="#dfe6d8"></circle><circle cx="800" cy="160" r="1.3" fill="#dfe6d8"></circle><circle cx="800" cy="200" r="1.3" fill="#dfe6d8"></circle><circle cx="800" cy="240" r="1.3" fill="#dfe6d8"></circle><circle cx="800" cy="280" r="1.3" fill="#dfe6d8"></circle><circle cx="800" cy="320" r="1.3" fill="#dfe6d8"></circle><circle cx="800" cy="360" r="1.3" fill="#dfe6d8"></circle><circle cx="800" cy="400" r="1.3" fill="#dfe6d8"></circle><circle cx="800" cy="440" r="1.3" fill="#dfe6d8"></circle><circle cx="800" cy="480" r="1.3" fill="#dfe6d8"></circle><circle cx="800" cy="520" r="1.3" fill="#dfe6d8"></circle><circle cx="800" cy="560" r="1.3" fill="#dfe6d8"></circle><circle cx="800" cy="600" r="1.3" fill="#dfe6d8"></circle><circle cx="840" cy="40" r="1.3" fill="#dfe6d8"></circle><circle cx="840" cy="80" r="1.3" fill="#dfe6d8"></circle><circle cx="840" cy="120" r="1.3" fill="#dfe6d8"></circle><circle cx="840" cy="160" r="1.3" fill="#dfe6d8"></circle><circle cx="840" cy="200" r="1.3" fill="#dfe6d8"></circle><circle cx="840" cy="240" r="1.3" fill="#dfe6d8"></circle><circle cx="840" cy="280" r="1.3" fill="#dfe6d8"></circle><circle cx="840" cy="320" r="1.3" fill="#dfe6d8"></circle><circle cx="840" cy="360" r="1.3" fill="#dfe6d8"></circle><circle cx="840" cy="400" r="1.3" fill="#dfe6d8"></circle><circle cx="840" cy="440" r="1.3" fill="#dfe6d8"></circle><circle cx="840" cy="480" r="1.3" fill="#dfe6d8"></circle><circle cx="840" cy="520" r="1.3" fill="#dfe6d8"></circle><circle cx="840" cy="560" r="1.3" fill="#dfe6d8"></circle><circle cx="840" cy="600" r="1.3" fill="#dfe6d8"></circle><circle cx="880" cy="40" r="1.3" fill="#dfe6d8"></circle><circle cx="880" cy="80" r="1.3" fill="#dfe6d8"></circle><circle cx="880" cy="120" r="1.3" fill="#dfe6d8"></circle><circle cx="880" cy="160" r="1.3" fill="#dfe6d8"></circle><circle cx="880" cy="200" r="1.3" fill="#dfe6d8"></circle><circle cx="880" cy="240" r="1.3" fill="#dfe6d8"></circle><circle cx="880" cy="280" r="1.3" fill="#dfe6d8"></circle><circle cx="880" cy="320" r="1.3" fill="#dfe6d8"></circle><circle cx="880" cy="360" r="1.3" fill="#dfe6d8"></circle><circle cx="880" cy="400" r="1.3" fill="#dfe6d8"></circle><circle cx="880" cy="440" r="1.3" fill="#dfe6d8"></circle><circle cx="880" cy="480" r="1.3" fill="#dfe6d8"></circle><circle cx="880" cy="520" r="1.3" fill="#dfe6d8"></circle><circle cx="880" cy="560" r="1.3" fill="#dfe6d8"></circle><circle cx="880" cy="600" r="1.3" fill="#dfe6d8"></circle><circle cx="920" cy="40" r="1.3" fill="#dfe6d8"></circle><circle cx="920" cy="80" r="1.3" fill="#dfe6d8"></circle><circle cx="920" cy="120" r="1.3" fill="#dfe6d8"></circle><circle cx="920" cy="160" r="1.3" fill="#dfe6d8"></circle><circle cx="920" cy="200" r="1.3" fill="#dfe6d8"></circle><circle cx="920" cy="240" r="1.3" fill="#dfe6d8"></circle><circle cx="920" cy="280" r="1.3" fill="#dfe6d8"></circle><circle cx="920" cy="320" r="1.3" fill="#dfe6d8"></circle><circle cx="920" cy="360" r="1.3" fill="#dfe6d8"></circle><circle cx="920" cy="400" r="1.3" fill="#dfe6d8"></circle><circle cx="920" cy="440" r="1.3" fill="#dfe6d8"></circle><circle cx="920" cy="480" r="1.3" fill="#dfe6d8"></circle><circle cx="920" cy="520" r="1.3" fill="#dfe6d8"></circle><circle cx="920" cy="560" r="1.3" fill="#dfe6d8"></circle><circle cx="920" cy="600" r="1.3" fill="#dfe6d8"></circle><circle cx="960" cy="40" r="1.3" fill="#dfe6d8"></circle><circle cx="960" cy="80" r="1.3" fill="#dfe6d8"></circle><circle cx="960" cy="120" r="1.3" fill="#dfe6d8"></circle><circle cx="960" cy="160" r="1.3" fill="#dfe6d8"></circle><circle cx="960" cy="200" r="1.3" fill="#dfe6d8"></circle><circle cx="960" cy="240" r="1.3" fill="#dfe6d8"></circle><circle cx="960" cy="280" r="1.3" fill="#dfe6d8"></circle><circle cx="960" cy="320" r="1.3" fill="#dfe6d8"></circle><circle cx="960" cy="360" r="1.3" fill="#dfe6d8"></circle><circle cx="960" cy="400" r="1.3" fill="#dfe6d8"></circle><circle cx="960" cy="440" r="1.3" fill="#dfe6d8"></circle><circle cx="960" cy="480" r="1.3" fill="#dfe6d8"></circle><circle cx="960" cy="520" r="1.3" fill="#dfe6d8"></circle><circle cx="960" cy="560" r="1.3" fill="#dfe6d8"></circle><circle cx="960" cy="600" r="1.3" fill="#dfe6d8"></circle><circle cx="430" cy="330" r="95" fill="rgba(138,187,42,.10)" stroke="#8ABB2A" stroke-width="1.5" stroke-dasharray="0" opacity="0.9"></circle><circle cx="430" cy="330" r="160" fill="none" stroke="#8ABB2A" stroke-width="1.35" stroke-dasharray="5 6" opacity="0.74"></circle><circle cx="430" cy="330" r="225" fill="none" stroke="#8ABB2A" stroke-width="1.2" stroke-dasharray="5 6" opacity="0.5800000000000001"></circle><circle cx="430" cy="330" r="290" fill="none" stroke="#8ABB2A" stroke-width="1.05" stroke-dasharray="5 6" opacity="0.42000000000000004"></circle><text x="430" y="30" font-family="&#39;Space Grotesk&#39;,sans-serif" font-size="14" font-weight="600" fill="#248332" text-anchor="middle" letter-spacing="1">~75-MILE SERVICE RADIUS</text><circle cx="335" cy="290" r="5" fill="#248332"></circle><text x="345" y="294" font-family="&#39;Instrument Sans&#39;,sans-serif" font-size="14" fill="#3c463f">Durham</text><circle cx="280" cy="385" r="5" fill="#248332"></circle><text x="290" y="389" font-family="&#39;Instrument Sans&#39;,sans-serif" font-size="14" fill="#3c463f">Chapel Hill</text><circle cx="440" cy="425" r="5" fill="#248332"></circle><text x="450" y="429" font-family="&#39;Instrument Sans&#39;,sans-serif" font-size="14" fill="#3c463f">Cary</text><circle cx="550" cy="260" r="5" fill="#248332"></circle><text x="560" y="264" font-family="&#39;Instrument Sans&#39;,sans-serif" font-size="14" fill="#3c463f">Wake Forest</text><g><circle cx="430" cy="330" r="9" fill="#248332"></circle><circle cx="430" cy="330" r="17" fill="none" stroke="#248332" stroke-width="2"></circle><text x="452" y="324" font-family="&#39;Space Grotesk&#39;,sans-serif" font-size="17" font-weight="700" fill="#13211A">Raleigh–Durham</text><text x="452" y="343" font-family="&#39;Instrument Sans&#39;,sans-serif" font-size="13" fill="#6b756f">The Triangle · home base</text></g></svg>