<svg xmlns="http://www.w3.org/2000/svg" viewBox="0 0 600 600" width="600" height="600"><defs><linearGradient id="g" x1="0" y1="0" x2="1" y2="1"><stop offset="0" stop-color="#8ABB2A"></stop><stop offset="1" stop-color="#248332"></stop></linearGradient></defs><circle cx="300" cy="300" r="260" fill="none" stroke="url(#g)" stroke-width="1.2" opacity="0.18"></circle><circle cx="300" cy="300" r="210" fill="none" stroke="url(#g)" stroke-width="1.6" opacity="0.32"></circle><circle cx="300" cy="300" r="160" fill="none" stroke="url(#g)" stroke-width="2" opacity="0.46"></circle><circle cx="300" cy="300" r="110" fill="none" stroke="url(#g)" stroke-width="2.4000000000000004" opacity="0.6000000000000001"></circle><circle cx="300" cy="300" r="46" fill="url(#g)"></circle><line x1="300" y1="300" x2="510.0" y2="300.0" stroke="url(#g)" stroke-width="1" opacity="0.14"></line><circle cx="510.0" cy="300.0" r="6" fill="url(#g)" opacity="0.8"></circle><line x1="300" y1="300" x2="448.5" y2="448.5" stroke="url(#g)" stroke-width="1" opacity="0.14"></line><circle cx="448.5" cy="448.5" r="6" fill="url(#g)" opacity="0.8"></circle><line x1="300" y1="300" x2="300.0" y2="510.0" stroke="url(#g)" stroke-width="1" opacity="0.14"></line><circle cx="300.0" cy="510.0" r="6" fill="url(#g)" opacity="0.8"></circle><line x1="300" y1="300" x2="151.5" y2="448.5" stroke="url(#g)" stroke-width="1" opacity="0.14"></line><circle cx="151.5" cy="448.5" r="6" fill="url(#g)" opacity="0.8"></circle><line x1="300" y1="300" x2="90.0" y2="300.0" stroke="url(#g)" stroke-width="1" opacity="0.14"></line><circle cx="90.0" cy="300.0" r="6" fill="url(#g)" opacity="0.8"></circle><line x1="300" y1="300" x2="151.5" y2="151.5" stroke="url(#g)" stroke-width="1" opacity="0.14"></line><circle cx="151.5" cy="151.5" r="6" fill="url(#g)" opacity="0.8"></circle><line x1="300" y1="300" x2="300.0" y2="90.0" stroke="url(#g)" stroke-width="1" opacity="0.14"></line><circle cx="300.0" cy="90.0" r="6" fill="url(#g)" opacity="0.8"></circle><line x1="300" y1="300" x2="448.5" y2="151.5" stroke="url(#g)" stroke-width="1" opacity="0.14"></line><circle cx="448.5" cy="151.5" r="6" fill="url(#g)" opacity="0.8"></circle></svg>